<svg preserveAspectRatio="none" overflow="visible" style="display: block;" width="5.20366" height="1.6271" viewBox="0 0 5.20366 1.6271" fill="none" xmlns="http://www.w3.org/2000/svg">
<g id="Payall - Logo">
<path id="Path" d="M0.65699 0C0.294144 0 0 0.300497 0 0.671178V1.6271L0.278723 1.34236V0.671178V0.671178C0.278723 0.457755 0.448079 0.284742 0.65699 0.284742C0.865901 0.284742 1.03526 0.457755 1.03526 0.671178C1.03526 0.884601 0.865901 1.05761 0.65699 1.05761H0.557446L0.278723 1.34236H0.65699C1.01983 1.34236 1.31398 1.04186 1.31398 0.671178C1.31398 0.300497 1.01983 0 0.65699 0Z" fill="#2563EB"/>
<path id="Shape" d="M3.15396 1.01511H3.03287V0.933075C2.89457 1.05208 2.68884 1.04035 2.56412 0.906708C2.43939 0.772979 2.43935 0.563848 2.56412 0.430145C2.68892 0.296468 2.89459 0.285522 3.03287 0.404755V0.362762L3.15396 0.321747V1.01511ZM2.81217 0.443817C2.6901 0.443817 2.59146 0.544521 2.59146 0.668427C2.59161 0.792205 2.69019 0.892059 2.81217 0.892059C2.87074 0.892026 2.927 0.868674 2.96842 0.82663C3.00973 0.784633 3.0328 0.72777 3.03287 0.668427C3.03287 0.544563 2.93418 0.443884 2.81217 0.443817Z" fill="#374151"/>
<path id="Shape_2" d="M4.65193 1.01511H4.53083V0.933075C4.39253 1.05208 4.1868 1.04035 4.06208 0.906708C3.93736 0.772979 3.93731 0.563848 4.06208 0.430145C4.18688 0.296468 4.39255 0.285522 4.53083 0.404755V0.362762L4.65193 0.321747V1.01511ZM4.31013 0.443817C4.18808 0.443867 4.08843 0.544539 4.08845 0.668427C4.0886 0.792209 4.18816 0.892059 4.31013 0.892059C4.36871 0.892011 4.42497 0.86869 4.46638 0.82663C4.50767 0.784634 4.53076 0.727753 4.53083 0.668427C4.53076 0.54463 4.43206 0.443915 4.31013 0.443817Z" fill="#374151"/>
<path id="Path_2" d="M4.94069 1.01522H4.80929V0.149538L4.94069 0.108315V1.01522V1.01522Z" fill="#374151"/>
<path id="Path_3" d="M5.20348 1.01522H5.07208V0.149538L5.20348 0.108315V1.01522V1.01522Z" fill="#374151"/>
<path id="Shape_3" d="M2.05007 0.321747C2.23867 0.321837 2.39187 0.47887 2.39187 0.672333C2.39177 0.865708 2.23861 1.02283 2.05007 1.02292H1.82839V1.10495L1.70827 1.22897V0.672333C1.70827 0.478815 1.86139 0.321747 2.05007 0.321747ZM2.05007 0.44577C1.92798 0.44577 1.82937 0.547113 1.82937 0.672333V0.898895H2.05007C2.17207 0.898845 2.2707 0.797455 2.27077 0.672333C2.27077 0.547144 2.17211 0.44582 2.05007 0.44577Z" fill="#374151"/>
<path id="Path_4" d="M3.83349 0.321747L3.61353 0.742359L3.39357 0.321747H3.25875L3.54573 0.871937L3.35914 1.22865H3.49527L3.9683 0.321747H3.83349V0.321747Z" fill="#374151"/>
</g>
</svg>
