<svg width="292" height="169" viewBox="0 0 292 169" fill="none" xmlns="http://www.w3.org/2000/svg">
<rect width="201.941" height="131.497" rx="9.39004" transform="matrix(0.866025 0.5 -0.866025 0.5 114.902 1.30371)" fill="url(#paint0_linear_33677_39519)"/>
<mask id="mask0_33677_39519" style="mask-type:alpha" maskUnits="userSpaceOnUse" x="6" y="2" width="280" height="162">
<rect width="201.679" height="131.326" rx="9.38041" transform="matrix(0.866025 0.5 -0.866025 0.5 115.115 0)" fill="url(#paint1_linear_33677_39519)"/>
</mask>
<g mask="url(#mask0_33677_39519)">
<rect width="201.679" height="131.326" rx="9.37783" transform="matrix(0.866025 0.5 -0.866025 0.5 115.115 0)" fill="url(#paint2_linear_33677_39519)"/>
<path d="M191.967 188.376C190.789 189 189.146 189.244 187.6 189.002L187.599 189.001L5.86547 161.232C3.51601 160.854 2.07193 159.473 2.73035 158.123L2.73204 158.12L2.81323 157.96C3.02757 157.589 3.41284 157.242 3.90845 156.956L76.0059 115.33C78.3077 114.001 81.6101 113.474 84.766 113.968L84.7668 113.967L271.421 142.503L191.967 188.376ZM217.6 34.0825C219.992 33.7283 222.335 34.5363 222.989 35.8901L222.988 35.8906L266.01 129.792L155.602 112.946L141.134 81.4404L141.133 81.4399C140.277 79.6181 141.192 77.7116 143.493 76.3828L215.583 34.7617C216.079 34.4758 216.68 34.2536 217.322 34.1299L217.6 34.0825Z" stroke="#2A3F98" stroke-width="0.29222"/>
<path d="M175.774 197.726C174.596 198.349 172.952 198.594 171.406 198.352L171.406 198.351L-10.3279 170.582C-12.6773 170.204 -14.1214 168.823 -13.463 167.473L-13.4613 167.47L-13.3801 167.31C-13.1658 166.939 -12.7805 166.591 -12.2849 166.305L59.8126 124.68C62.1143 123.351 65.4168 122.823 68.5726 123.317L68.5735 123.317L255.227 151.853L175.774 197.726ZM201.407 43.4321C203.799 43.0779 206.141 43.8859 206.796 45.2397L206.795 45.2402L249.816 139.141L139.409 122.296L124.94 90.79L124.94 90.7896C124.084 88.9677 124.998 87.0612 127.3 85.7324L199.39 44.1113C199.885 43.8254 200.486 43.6032 201.129 43.4795L201.407 43.4321Z" stroke="#2A3F98" stroke-width="0.29222"/>
<path d="M183.871 193.051C182.694 193.675 181.05 193.919 179.504 193.677L179.503 193.676L-2.23024 165.907C-4.57969 165.529 -6.02377 164.148 -5.36535 162.798L-5.36366 162.795L-5.28247 162.635C-5.06814 162.264 -4.68287 161.917 -4.18725 161.63L67.9102 120.005C70.212 118.676 73.5144 118.149 76.6703 118.643L76.6711 118.642L263.325 147.178L183.871 193.051ZM209.505 38.7573C211.897 38.4031 214.239 39.2111 214.894 40.5649L214.893 40.5654L257.914 134.466L147.507 117.621L133.038 86.1152L133.037 86.1148C132.182 84.2929 133.096 82.3864 135.398 81.0576L207.487 39.4365C207.983 39.1506 208.584 38.9284 209.226 38.8047L209.505 38.7573Z" stroke="#2A3F98" stroke-width="0.29222"/>
<rect opacity="0.5" width="35.1574" height="6.72127" rx="3.36063" transform="matrix(0.866025 0.5 -0.866025 0.5 233.427 84.5586)" fill="#425BA4"/>
<path d="M172.861 151.482C172.741 151.355 172.769 151.136 172.927 151.002C173.03 150.915 173.146 150.881 173.68 150.782C175.84 150.385 177.469 149.813 179.057 148.897C180.592 148.01 181.505 147.157 182.235 145.924C182.39 145.66 182.554 145.423 182.596 145.399C182.749 145.311 183.098 145.256 183.321 145.287C183.628 145.327 183.923 145.523 183.934 145.694C183.939 145.76 183.84 145.991 183.717 146.208C183.233 147.07 182.493 147.894 181.536 148.644C180.942 149.108 179.642 149.884 178.917 150.204C177.583 150.795 176.218 151.223 174.69 151.529C173.766 151.714 173.321 151.753 173.163 151.662C173.133 151.644 173.071 151.619 173.032 151.606C172.992 151.594 172.914 151.538 172.861 151.482ZM171.884 149.682C171.698 149.486 171.832 149.189 172.149 149.094C172.226 149.07 172.62 148.986 173.025 148.907C174.738 148.568 176.203 147.993 177.298 147.229C178.198 146.6 178.647 146.136 179.114 145.349C179.429 144.82 179.508 144.757 179.933 144.714C180.336 144.673 180.789 144.892 180.807 145.132C180.82 145.299 180.307 146.139 179.933 146.565C178.693 147.974 176.624 149.062 174.048 149.662C172.725 149.968 172.16 149.973 171.884 149.682ZM170.859 147.836C170.769 147.7 170.802 147.52 170.936 147.397C171.017 147.322 171.177 147.278 171.759 147.164C173.906 146.745 175.294 145.95 176.006 144.74C176.317 144.209 176.433 144.135 176.932 144.142C177.18 144.146 177.254 144.166 177.432 144.269C177.732 144.442 177.736 144.619 177.454 145.091C177.02 145.816 176.455 146.337 175.513 146.879C174.545 147.435 173.724 147.727 172.395 147.989C171.632 148.138 171.372 148.144 171.087 148.018C171.004 147.977 170.899 147.896 170.859 147.836ZM169.9 146.114C169.823 146.009 169.852 145.823 169.961 145.709C170.084 145.583 170.259 145.527 170.769 145.455C171.429 145.362 171.705 145.269 172.239 144.96C172.773 144.652 172.938 144.491 173.095 144.112C173.148 143.983 173.231 143.839 173.277 143.79C173.465 143.587 174.022 143.527 174.381 143.668C174.685 143.788 174.747 143.955 174.615 144.304C174.232 145.312 172.813 146.131 171.076 146.348C170.465 146.422 170.066 146.344 169.9 146.114Z" fill="#495888"/>
<path d="M35.617 63.8051L36.3866 64.2494L33.1847 66.098C32.9673 66.2211 32.7276 66.3119 32.4658 66.3704C32.2082 66.429 31.9443 66.4558 31.6741 66.4509C31.4059 66.4472 31.142 66.4119 30.8823 66.3448C30.6247 66.279 30.3872 66.1833 30.1697 66.0578C29.9459 65.9286 29.7717 65.7926 29.6472 65.65C29.5268 65.5074 29.4592 65.3635 29.4445 65.2185C29.4297 65.0734 29.4709 64.9278 29.568 64.7815C29.6672 64.6364 29.8266 64.4956 30.0462 64.3591L30.8126 64.8016C30.6965 64.8711 30.6068 64.9424 30.5434 65.0155C30.4822 65.0874 30.4474 65.1588 30.4389 65.2295C30.4284 65.3111 30.4526 65.391 30.5118 65.469C30.5709 65.547 30.6648 65.6232 30.7936 65.6976C30.9119 65.7658 31.0407 65.8146 31.18 65.8438C31.3194 65.8731 31.4608 65.8853 31.6044 65.8804C31.7459 65.8743 31.8863 65.8518 32.0256 65.8127C32.1692 65.7737 32.299 65.7207 32.4152 65.6537L35.617 63.8051ZM37.8561 68.1148C37.6703 68.2221 37.474 68.316 37.2671 68.3964C37.0623 68.4781 36.8522 68.5457 36.6368 68.5994C36.4173 68.6506 36.1934 68.6859 35.9654 68.7054C35.7395 68.7237 35.5168 68.7231 35.2972 68.7036C35.0903 68.6817 34.8876 68.6414 34.6891 68.5829C34.4927 68.5256 34.3059 68.4458 34.1285 68.3434C33.9448 68.2373 33.8013 68.1252 33.6978 68.0069C33.5986 67.8887 33.5342 67.7686 33.5046 67.6467C33.4751 67.5224 33.4793 67.3956 33.5173 67.2664C33.5574 67.1384 33.625 67.0116 33.72 66.8861C33.8108 66.7654 33.9258 66.6478 34.0652 66.5332C34.2066 66.4174 34.3671 66.3077 34.5466 66.204L35.1547 65.853C35.3426 65.7445 35.54 65.6488 35.7469 65.5659C35.9538 65.483 36.1671 65.4147 36.3866 65.3611C36.5978 65.3099 36.81 65.274 37.0232 65.2532C37.2407 65.2325 37.4571 65.2307 37.6725 65.2477C37.8815 65.2636 38.0852 65.3008 38.2837 65.3593C38.4864 65.4178 38.6785 65.4995 38.8601 65.6043C39.0438 65.7104 39.1874 65.8225 39.2908 65.9407C39.3943 66.059 39.4618 66.1797 39.4935 66.3028C39.5252 66.4259 39.5252 66.549 39.4935 66.6721C39.4618 66.7953 39.4038 66.9166 39.3193 67.036C39.2306 67.1652 39.1135 67.2914 38.9678 67.4145C38.8242 67.5364 38.6564 67.6528 38.4642 67.7638L37.8561 68.1148ZM37.7041 67.3176C37.8181 67.2493 37.9248 67.1792 38.024 67.1073C38.1253 67.0366 38.213 66.9641 38.2869 66.8897C38.3713 66.8044 38.4347 66.7191 38.4769 66.6337C38.5233 66.5484 38.5434 66.4649 38.5371 66.3832C38.5307 66.3113 38.5022 66.2412 38.4516 66.173C38.4009 66.1047 38.3217 66.0395 38.214 65.9773C38.1106 65.9176 38.0008 65.8737 37.8846 65.8457C37.7706 65.8164 37.6545 65.8006 37.5363 65.7981C37.3927 65.7957 37.247 65.8079 37.0992 65.8347C36.9535 65.8603 36.8079 65.8993 36.6622 65.9517C36.5355 65.9956 36.4088 66.0468 36.2821 66.1053C36.1597 66.1638 36.0414 66.226 35.9274 66.2918L35.313 66.6465C35.2011 66.7111 35.0955 66.7782 34.9963 66.8477C34.8971 66.9172 34.8094 66.9885 34.7334 67.0616C34.6469 67.1433 34.5772 67.2262 34.5244 67.3103C34.4758 67.3944 34.4516 67.4755 34.4516 67.5535C34.4537 67.6278 34.478 67.7004 34.5244 67.7711C34.5751 67.8418 34.6564 67.9094 34.7683 67.974C34.876 68.0362 34.991 68.0819 35.1135 68.1112C35.2381 68.1416 35.3626 68.1575 35.4872 68.1587C35.6308 68.1611 35.7743 68.149 35.9179 68.1221C36.0657 68.0953 36.2124 68.0569 36.3581 68.0069C36.4848 67.9631 36.6083 67.9125 36.7287 67.8552C36.8532 67.7979 36.9736 67.7369 37.0897 67.6723L37.7041 67.3176ZM39.6075 71.4335L38.8633 71.0039L40.9187 69.8172L39.3668 68.9212L37.3114 70.1079L36.5703 69.68L41.1815 67.0177L41.9226 67.4456L39.9939 68.5591L41.5458 69.4551L43.4745 68.3416L44.2187 68.7713L39.6075 71.4335ZM43.4998 73.6808L42.7366 73.2401L44.4119 70.5431L41.2354 72.3734L40.4658 71.9291L45.077 69.2668L45.8498 69.7129L44.1776 72.3972L47.3446 70.576L48.1111 71.0185L43.4998 73.6808ZM47.3953 75.9298L46.632 75.4892L48.3074 72.7921L45.1309 74.6224L44.3613 74.1781L48.9725 71.5158L49.7452 71.962L48.073 74.6462L51.2401 72.825L52.0065 73.2675L47.3953 75.9298ZM52.206 75.928L55.3763 75.213L56.225 75.7031L51.8165 76.5808L50.1633 77.5279L49.419 77.0982L51.0849 76.1328L52.5956 73.6076L53.4412 74.0958L52.206 75.928ZM59.4047 81.6384L57.9574 80.8028L56.5829 81.2343L55.7911 80.7772L61.9036 78.9816L62.5781 79.3711L59.4428 82.8854L58.6542 82.4301L59.4047 81.6384ZM58.803 80.5376L59.8703 81.1538L61.1656 79.7953L58.803 80.5376ZM62.9772 84.926L62.2139 84.4854L63.8893 81.7883L60.7127 83.6186L59.9431 83.1743L64.5544 80.512L65.3271 80.9582L63.6549 83.6424L66.822 81.8212L67.5884 82.2637L62.9772 84.926ZM63.8608 85.4362L68.472 82.7739L69.6121 83.4321C69.8106 83.5467 69.9742 83.668 70.103 83.796C70.2339 83.9228 70.3311 84.0508 70.3944 84.18C70.4683 84.3177 70.5031 84.4573 70.4989 84.5987C70.4968 84.7413 70.4599 84.8809 70.3881 85.0174C70.3121 85.1589 70.2012 85.2984 70.0555 85.4362C69.9099 85.5739 69.7283 85.7056 69.5108 85.8311L69.1498 86.0396C68.9407 86.1603 68.7201 86.262 68.4878 86.3449C68.2598 86.4278 68.0286 86.4906 67.7943 86.5333C67.5662 86.5747 67.335 86.5985 67.1007 86.6046C66.8684 86.6119 66.6415 86.6015 66.4198 86.5735C66.1727 86.5406 65.931 86.4851 65.6945 86.4071C65.4601 86.3303 65.2374 86.231 65.0263 86.1091L63.8608 85.4362ZM68.6209 83.5766L65.248 85.5239L65.6438 85.7525C65.779 85.8305 65.9183 85.8927 66.0619 85.939C66.2097 85.9853 66.3596 86.017 66.5116 86.0341C66.6678 86.0512 66.8294 86.053 66.9962 86.0396C67.1672 86.0262 67.3382 85.9969 67.5092 85.9518C67.6549 85.914 67.8006 85.8653 67.9463 85.8055C68.092 85.7458 68.2355 85.6751 68.377 85.5934L68.7444 85.3813C68.8837 85.3009 69.0051 85.2186 69.1086 85.1345C69.212 85.0504 69.2965 84.9663 69.362 84.8821C69.4401 84.7785 69.4886 84.6725 69.5076 84.564C69.5287 84.4543 69.514 84.347 69.4633 84.2422C69.4274 84.1654 69.3693 84.0892 69.2891 84.0136C69.211 83.9368 69.1118 83.8624 68.9914 83.7905L68.6209 83.5766ZM72.5702 88.0765L70.6636 86.9758L69.2226 87.8077L71.449 89.0932L70.822 89.4552L67.8323 87.7291L72.4435 85.0668L75.4174 86.7838L74.7871 87.1476L72.5765 85.8714L71.278 86.621L73.1846 87.7218L72.5702 88.0765ZM75.0246 89.8154L74.2455 89.3656L72.4562 90.3987L71.6961 89.9599L76.3073 87.2976L77.7705 88.1424C78.0069 88.2813 78.1959 88.4258 78.3374 88.5757C78.4788 88.7256 78.5654 88.8756 78.5971 89.0255C78.6245 89.1755 78.5918 89.3236 78.4989 89.4698C78.4081 89.6149 78.2476 89.7539 78.0175 89.8867C77.8591 89.9782 77.6945 90.0489 77.5234 90.0988C77.3545 90.15 77.1814 90.1842 77.004 90.2012C76.8267 90.2183 76.6472 90.2195 76.4656 90.2049C76.2841 90.1903 76.1014 90.1628 75.9177 90.1226L74.974 91.8048L74.9328 91.8286L74.1189 91.3587L75.0246 89.8154ZM74.8663 89.0072L75.5789 89.4186C75.7161 89.4954 75.8576 89.554 76.0033 89.5942C76.1532 89.6344 76.3031 89.6551 76.453 89.6563C76.5839 89.6588 76.7148 89.6442 76.8457 89.6125C76.9766 89.5808 77.1012 89.5308 77.2194 89.4625C77.3524 89.3857 77.4474 89.3065 77.5044 89.2248C77.5657 89.1431 77.5899 89.0596 77.5773 88.9743C77.5667 88.8951 77.5245 88.8158 77.4506 88.7366C77.3788 88.6562 77.2785 88.5775 77.1497 88.5007L76.4466 88.0948L74.8663 89.0072ZM79.1735 92.9056C79.2812 92.8434 79.354 92.7758 79.392 92.7026C79.43 92.6295 79.4416 92.5509 79.4268 92.4667C79.4036 92.3826 79.3582 92.293 79.2907 92.198C79.2273 92.1029 79.145 92.0029 79.0436 91.8981C78.8874 91.7372 78.7618 91.5781 78.6667 91.4208C78.576 91.2636 78.5221 91.1155 78.5052 90.9765C78.4904 90.8363 78.5179 90.7035 78.5876 90.5779C78.6615 90.4524 78.7892 90.3372 78.9708 90.2323C79.1671 90.119 79.3857 90.0415 79.6264 90.0001C79.8692 89.9574 80.1183 89.9452 80.3738 89.9635C80.6271 89.983 80.8773 90.0312 81.1244 90.108C81.3756 90.1848 81.6068 90.2841 81.818 90.406C82.0418 90.5352 82.2149 90.6754 82.3374 90.8266C82.464 90.9777 82.5379 91.1301 82.559 91.2837C82.5781 91.4385 82.5422 91.5897 82.4514 91.7372C82.3648 91.8847 82.217 92.0188 82.008 92.1394L81.2542 91.7043C81.3598 91.6311 81.44 91.5555 81.4949 91.4775C81.554 91.3995 81.5836 91.3203 81.5836 91.2398C81.5794 91.1594 81.5445 91.0783 81.4791 90.9966C81.4179 90.915 81.3207 90.8357 81.1877 90.7589C81.0716 90.6919 80.9481 90.6389 80.8172 90.5999C80.6905 90.5608 80.5638 90.5365 80.4371 90.5267C80.3083 90.5182 80.1838 90.5255 80.0634 90.5487C79.9431 90.5718 79.8333 90.612 79.734 90.6693C79.6306 90.7315 79.5651 90.801 79.5377 90.8778C79.5123 90.9534 79.5145 91.0338 79.544 91.1191C79.5757 91.2057 79.6274 91.2953 79.6992 91.3879C79.7731 91.4818 79.8554 91.5769 79.9462 91.6732C80.0624 91.7939 80.1626 91.9188 80.2471 92.048C80.3358 92.1772 80.397 92.3077 80.4308 92.4393C80.4709 92.6039 80.454 92.7636 80.3801 92.9184C80.3104 93.0732 80.1648 93.2146 79.9431 93.3426C79.7383 93.4608 79.5145 93.5401 79.2717 93.5803C79.031 93.6217 78.7871 93.6309 78.5401 93.6077C78.2867 93.5858 78.0365 93.5352 77.7895 93.456C77.5446 93.3755 77.3155 93.2737 77.1022 93.1506C76.8763 93.0202 76.6884 92.8715 76.5385 92.7045C76.3907 92.5362 76.3031 92.3662 76.2756 92.1943C76.2524 92.0346 76.282 91.8798 76.3643 91.7299C76.4488 91.5811 76.6008 91.4422 76.8204 91.313L77.5804 91.7518C77.4495 91.8396 77.3556 91.9279 77.2986 92.0169C77.2458 92.1059 77.2289 92.1949 77.2479 92.2839C77.2627 92.3729 77.3102 92.46 77.3904 92.5454C77.4728 92.6319 77.5826 92.7148 77.7198 92.794C77.8359 92.8611 77.9573 92.9153 78.084 92.9568C78.2128 92.9994 78.3416 93.0263 78.4704 93.0372C78.595 93.0482 78.7174 93.0433 78.8378 93.0226C78.9602 93.0031 79.0721 92.9641 79.1735 92.9056ZM84.6018 95.1034C84.416 95.2107 84.2196 95.3046 84.0127 95.385C83.8079 95.4667 83.5978 95.5344 83.3825 95.588C83.1629 95.6392 82.9391 95.6745 82.7111 95.694C82.4851 95.7123 82.2624 95.7117 82.0428 95.6922C81.8359 95.6703 81.6332 95.63 81.4347 95.5715C81.2384 95.5142 81.0515 95.4344 80.8742 95.332C80.6905 95.2259 80.5469 95.1138 80.4435 94.9956C80.3442 94.8773 80.2798 94.7572 80.2503 94.6353C80.2207 94.511 80.2249 94.3842 80.2629 94.255C80.3031 94.127 80.3706 94.0002 80.4656 93.8747C80.5564 93.754 80.6715 93.6364 80.8108 93.5218C80.9523 93.406 81.1128 93.2963 81.2922 93.1927L81.9003 92.8416C82.0882 92.7331 82.2856 92.6374 82.4925 92.5545C82.6995 92.4716 82.9127 92.4034 83.1323 92.3497C83.3434 92.2985 83.5556 92.2626 83.7689 92.2418C83.9863 92.2211 84.2027 92.2193 84.4181 92.2364C84.6271 92.2522 84.8309 92.2894 85.0293 92.3479C85.232 92.4064 85.4242 92.4881 85.6057 92.5929C85.7894 92.699 85.933 92.8111 86.0365 92.9294C86.1399 93.0476 86.2075 93.1683 86.2392 93.2914C86.2708 93.4145 86.2708 93.5376 86.2392 93.6608C86.2075 93.7839 86.1494 93.9052 86.065 94.0246C85.9763 94.1538 85.8591 94.28 85.7134 94.4031C85.5699 94.525 85.402 94.6414 85.2099 94.7524L84.6018 95.1034ZM84.4498 94.3062C84.5638 94.2379 84.6704 94.1679 84.7696 94.0959C84.871 94.0252 84.9586 93.9527 85.0325 93.8783C85.117 93.793 85.1803 93.7077 85.2225 93.6224C85.269 93.537 85.289 93.4535 85.2827 93.3719C85.2764 93.2999 85.2479 93.2298 85.1972 93.1616C85.1465 93.0933 85.0673 93.0281 84.9597 92.9659C84.8562 92.9062 84.7464 92.8623 84.6303 92.8343C84.5163 92.805 84.4002 92.7892 84.2819 92.7867C84.1383 92.7843 83.9927 92.7965 83.8449 92.8233C83.6992 92.8489 83.5535 92.8879 83.4078 92.9403C83.2811 92.9842 83.1545 93.0354 83.0278 93.0939C82.9053 93.1524 82.7871 93.2146 82.6731 93.2804L82.0587 93.6352C81.9467 93.6998 81.8412 93.7668 81.7419 93.8363C81.6427 93.9058 81.5551 93.9771 81.4791 94.0502C81.3925 94.1319 81.3228 94.2148 81.2701 94.2989C81.2215 94.383 81.1972 94.4641 81.1972 94.5421C81.1993 94.6164 81.2236 94.689 81.2701 94.7597C81.3207 94.8304 81.402 94.898 81.5139 94.9626C81.6216 95.0248 81.7367 95.0705 81.8591 95.0998C81.9837 95.1303 82.1083 95.1461 82.2328 95.1473C82.3764 95.1498 82.52 95.1376 82.6636 95.1108C82.8114 95.0839 82.9581 95.0455 83.1038 94.9956C83.2305 94.9517 83.354 94.9011 83.4743 94.8438C83.5989 94.7865 83.7192 94.7255 83.8354 94.6609L84.4498 94.3062ZM86.35 98.4203L85.5867 97.9797L87.2621 95.2826L84.0856 97.113L83.316 96.6686L87.9272 94.0063L88.7 94.4525L87.0278 97.1367L90.1948 95.3155L90.9612 95.758L86.35 98.4203Z" fill="white"/>
<path d="M59.6153 49.2504C59.7576 49.1682 59.9115 49.1061 60.0771 49.064C60.2492 49.022 60.4214 49.0009 60.5935 49.0009C60.7657 49.0009 60.9378 49.022 61.11 49.064C61.2854 49.108 61.451 49.1749 61.6065 49.2647C61.7621 49.3545 61.878 49.4501 61.9542 49.5514C62.0303 49.6527 62.07 49.754 62.0733 49.8553C62.0733 49.9547 62.0353 50.0531 61.9591 50.1506C61.8863 50.2462 61.7787 50.3351 61.6363 50.4173L61.3483 50.5835C61.206 50.6657 61.052 50.7278 60.8865 50.7699C60.721 50.8119 60.5521 50.833 60.38 50.833C60.2012 50.833 60.0241 50.811 59.8486 50.767C59.6798 50.7231 59.5176 50.6562 59.362 50.5663C59.2064 50.4765 59.0889 50.3819 59.0094 50.2825C58.9366 50.1831 58.9018 50.0828 58.9051 49.9815C58.9018 49.8802 58.9349 49.7808 59.0045 49.6833C59.0773 49.5877 59.1849 49.4989 59.3272 49.4167L59.6153 49.2504ZM65.2147 52.4832C65.3571 52.401 65.511 52.3389 65.6765 52.2969C65.8487 52.2548 66.0208 52.2338 66.193 52.2338C66.3651 52.2338 66.5373 52.2548 66.7094 52.2969C66.8849 52.3408 67.0504 52.4077 67.206 52.4976C67.3616 52.5874 67.4775 52.683 67.5536 52.7843C67.6298 52.8856 67.6695 52.9869 67.6728 53.0882C67.6728 53.1876 67.6347 53.286 67.5586 53.3835C67.4858 53.479 67.3782 53.5679 67.2358 53.6501L66.9478 53.8164C66.8054 53.8986 66.6515 53.9607 66.486 54.0028C66.3204 54.0448 66.1516 54.0658 65.9795 54.0658C65.8007 54.0658 65.6236 54.0438 65.4481 53.9999C65.2793 53.9559 65.1171 53.889 64.9615 53.7992C64.8059 53.7094 64.6883 53.6147 64.6089 53.5154C64.5361 53.416 64.5013 53.3156 64.5046 53.2143C64.5013 53.113 64.5344 53.0136 64.6039 52.9162C64.6768 52.8206 64.7843 52.7317 64.9267 52.6495L65.2147 52.4832ZM70.8142 55.7161C70.9565 55.6339 71.1105 55.5718 71.276 55.5297C71.4482 55.4877 71.6203 55.4667 71.7925 55.4667C71.9646 55.4667 72.1368 55.4877 72.3089 55.5297C72.4844 55.5737 72.6499 55.6406 72.8055 55.7304C72.9611 55.8203 73.0769 55.9158 73.1531 56.0171C73.2292 56.1184 73.269 56.2197 73.2723 56.321C73.2723 56.4204 73.2342 56.5189 73.1581 56.6163C73.0852 56.7119 72.9776 56.8008 72.8353 56.883L72.5473 57.0492C72.4049 57.1314 72.251 57.1936 72.0854 57.2356C71.9199 57.2777 71.7511 57.2987 71.5789 57.2987C71.4002 57.2987 71.223 57.2767 71.0476 57.2327C70.8787 57.1888 70.7165 57.1219 70.5609 57.032C70.4053 56.9422 70.2878 56.8476 70.2084 56.7482C70.1355 56.6488 70.1008 56.5485 70.1041 56.4472C70.1008 56.3459 70.1339 56.2465 70.2034 56.149C70.2762 56.0534 70.3838 55.9646 70.5262 55.8824L70.8142 55.7161ZM76.4137 58.9489C76.556 58.8668 76.7099 58.8046 76.8755 58.7626C77.0476 58.7205 77.2198 58.6995 77.3919 58.6995C77.5641 58.6995 77.7362 58.7205 77.9084 58.7626C78.0838 58.8065 78.2494 58.8734 78.405 58.9633C78.5605 59.0531 78.6764 59.1487 78.7526 59.25C78.8287 59.3513 78.8684 59.4526 78.8717 59.5539C78.8717 59.6533 78.8337 59.7517 78.7575 59.8492C78.6847 59.9448 78.5771 60.0336 78.4347 60.1158L78.1467 60.2821C78.0044 60.3643 77.8504 60.4264 77.6849 60.4685C77.5194 60.5105 77.3505 60.5315 77.1784 60.5315C76.9996 60.5315 76.8225 60.5096 76.647 60.4656C76.4782 60.4216 76.316 60.3547 76.1604 60.2649C76.0048 60.1751 75.8873 60.0805 75.8078 59.9811C75.735 59.8817 75.7002 59.7813 75.7035 59.68C75.7002 59.5787 75.7333 59.4793 75.8029 59.3819C75.8757 59.2863 75.9833 59.1974 76.1256 59.1152L76.4137 58.9489ZM93.2121 68.6475C93.3544 68.5653 93.5084 68.5032 93.6739 68.4611C93.846 68.4191 94.0182 68.3981 94.1903 68.3981C94.3625 68.3981 94.5346 68.4191 94.7068 68.4611C94.8822 68.5051 95.0478 68.572 95.2034 68.6618C95.359 68.7517 95.4748 68.8472 95.551 68.9485C95.6271 69.0498 95.6668 69.1511 95.6701 69.2524C95.6701 69.3518 95.6321 69.4503 95.5559 69.5477C95.4831 69.6433 95.3755 69.7322 95.2332 69.8144L94.9451 69.9807C94.8028 70.0629 94.6488 70.125 94.4833 70.167C94.3178 70.2091 94.1489 70.2301 93.9768 70.2301C93.798 70.2301 93.6209 70.2081 93.4455 70.1642C93.2766 70.1202 93.1144 70.0533 92.9588 69.9635C92.8032 69.8736 92.6857 69.779 92.6062 69.6796C92.5334 69.5802 92.4986 69.4799 92.5019 69.3786C92.4986 69.2773 92.5317 69.1779 92.6013 69.0804C92.6741 68.9849 92.7817 68.896 92.924 68.8138L93.2121 68.6475ZM98.8115 71.8804C98.9539 71.7982 99.1078 71.736 99.2733 71.694C99.4455 71.6519 99.6176 71.6309 99.7898 71.6309C99.9619 71.6309 100.134 71.6519 100.306 71.694C100.482 71.738 100.647 71.8049 100.803 71.8947C100.958 71.9845 101.074 72.0801 101.15 72.1814C101.227 72.2827 101.266 72.384 101.27 72.4853C101.27 72.5847 101.232 72.6831 101.155 72.7806C101.083 72.8762 100.975 72.965 100.833 73.0472L100.545 73.2135C100.402 73.2957 100.248 73.3578 100.083 73.3999C99.9172 73.4419 99.7484 73.463 99.5763 73.463C99.3975 73.463 99.2204 73.441 99.0449 73.397C98.8761 73.353 98.7139 73.2862 98.5583 73.1963C98.4027 73.1065 98.2851 73.0119 98.2057 72.9125C98.1329 72.8131 98.0981 72.7127 98.1014 72.6114C98.0981 72.5101 98.1312 72.4108 98.2007 72.3133C98.2736 72.2177 98.3812 72.1288 98.5235 72.0466L98.8115 71.8804ZM104.411 75.1132C104.553 75.031 104.707 74.9689 104.873 74.9269C105.045 74.8848 105.217 74.8638 105.389 74.8638C105.561 74.8638 105.734 74.8848 105.906 74.9269C106.081 74.9708 106.247 75.0377 106.402 75.1275C106.558 75.2174 106.674 75.3129 106.75 75.4142C106.826 75.5155 106.866 75.6169 106.869 75.7182C106.869 75.8175 106.831 75.916 106.755 76.0135C106.682 76.109 106.574 76.1979 106.432 76.2801L106.144 76.4464C106.002 76.5286 105.848 76.5907 105.682 76.6327C105.517 76.6748 105.348 76.6958 105.176 76.6958C104.997 76.6958 104.82 76.6738 104.644 76.6299C104.476 76.5859 104.313 76.519 104.158 76.4292C104.002 76.3393 103.885 76.2447 103.805 76.1453C103.732 76.0459 103.698 75.9456 103.701 75.8443C103.698 75.743 103.731 75.6436 103.8 75.5461C103.873 75.4506 103.981 75.3617 104.123 75.2795L104.411 75.1132ZM110.01 78.3461C110.153 78.2639 110.307 78.2018 110.472 78.1597C110.644 78.1177 110.817 78.0966 110.989 78.0966C111.161 78.0966 111.333 78.1177 111.505 78.1597C111.681 78.2037 111.846 78.2706 112.002 78.3604C112.157 78.4502 112.273 78.5458 112.349 78.6471C112.426 78.7484 112.465 78.8497 112.469 78.951C112.469 79.0504 112.43 79.1488 112.354 79.2463C112.282 79.3419 112.174 79.4308 112.032 79.5129L111.744 79.6792C111.601 79.7614 111.447 79.8235 111.282 79.8656C111.116 79.9076 110.947 79.9287 110.775 79.9287C110.596 79.9287 110.419 79.9067 110.244 79.8627C110.075 79.8188 109.913 79.7519 109.757 79.662C109.602 79.5722 109.484 79.4776 109.405 79.3782C109.332 79.2788 109.297 79.1785 109.3 79.0772C109.297 78.9759 109.33 78.8765 109.4 78.779C109.472 78.6834 109.58 78.5945 109.722 78.5124L110.01 78.3461ZM126.809 88.0446C126.951 87.9624 127.105 87.9003 127.271 87.8583C127.443 87.8162 127.615 87.7952 127.787 87.7952C127.959 87.7952 128.131 87.8162 128.304 87.8583C128.479 87.9022 128.645 87.9691 128.8 88.059C128.956 88.1488 129.072 88.2444 129.148 88.3457C129.224 88.447 129.264 88.5483 129.267 88.6496C129.267 88.749 129.229 88.8474 129.153 88.9449C129.08 89.0404 128.972 89.1293 128.83 89.2115L128.542 89.3778C128.4 89.46 128.246 89.5221 128.08 89.5642C127.915 89.6062 127.746 89.6272 127.574 89.6272C127.395 89.6272 127.218 89.6052 127.042 89.5613C126.873 89.5173 126.711 89.4504 126.556 89.3606C126.4 89.2708 126.282 89.1761 126.203 89.0768C126.13 88.9774 126.095 88.877 126.099 88.7757C126.095 88.6744 126.129 88.575 126.198 88.4776C126.271 88.382 126.378 88.2931 126.521 88.2109L126.809 88.0446ZM132.408 91.2775C132.551 91.1953 132.705 91.1332 132.87 91.0911C133.042 91.0491 133.214 91.0281 133.387 91.0281C133.559 91.0281 133.731 91.0491 133.903 91.0911C134.079 91.1351 134.244 91.202 134.4 91.2918C134.555 91.3817 134.671 91.4772 134.747 91.5785C134.823 91.6798 134.863 91.7811 134.866 91.8824C134.866 91.9818 134.828 92.0802 134.752 92.1777C134.679 92.2733 134.572 92.3622 134.429 92.4444L134.141 92.6106C133.999 92.6928 133.845 92.755 133.68 92.797C133.514 92.8391 133.345 92.8601 133.173 92.8601C132.994 92.8601 132.817 92.8381 132.642 92.7941C132.473 92.7502 132.311 92.6833 132.155 92.5934C131.999 92.5036 131.882 92.409 131.803 92.3096C131.73 92.2102 131.695 92.1099 131.698 92.0086C131.695 91.9073 131.728 91.8079 131.798 91.7104C131.87 91.6148 131.978 91.526 132.12 91.4438L132.408 91.2775ZM138.008 94.5103C138.15 94.4281 138.304 94.366 138.47 94.324C138.642 94.2819 138.814 94.2609 138.986 94.2609C139.158 94.2609 139.33 94.2819 139.503 94.324C139.678 94.3679 139.844 94.4348 139.999 94.5247C140.155 94.6145 140.271 94.7101 140.347 94.8114C140.423 94.9127 140.463 95.014 140.466 95.1153C140.466 95.2147 140.428 95.3131 140.352 95.4106C140.279 95.5061 140.171 95.595 140.029 95.6772L139.741 95.8435C139.599 95.9257 139.445 95.9878 139.279 96.0299C139.114 96.0719 138.945 96.0929 138.773 96.0929C138.594 96.0929 138.417 96.071 138.241 96.027C138.072 95.983 137.91 95.9161 137.755 95.8263C137.599 95.7365 137.481 95.6419 137.402 95.5425C137.329 95.4431 137.294 95.3427 137.298 95.2414C137.294 95.1401 137.327 95.0407 137.397 94.9433C137.47 94.8477 137.577 94.7588 137.72 94.6766L138.008 94.5103ZM143.607 97.7432C143.75 97.661 143.904 97.5989 144.069 97.5568C144.241 97.5148 144.413 97.4938 144.586 97.4938C144.758 97.4938 144.93 97.5148 145.102 97.5568C145.277 97.6008 145.443 97.6677 145.599 97.7575C145.754 97.8474 145.87 97.9429 145.946 98.0442C146.022 98.1455 146.062 98.2468 146.065 98.3481C146.065 98.4475 146.027 98.546 145.951 98.6434C145.878 98.739 145.771 98.8279 145.628 98.9101L145.34 99.0764C145.198 99.1585 145.044 99.2207 144.879 99.2627C144.713 99.3048 144.544 99.3258 144.372 99.3258C144.193 99.3258 144.016 99.3038 143.841 99.2598C143.672 99.2159 143.51 99.149 143.354 99.0592C143.198 98.9693 143.081 98.8747 143.001 98.7753C142.929 98.6759 142.894 98.5756 142.897 98.4743C142.894 98.373 142.927 98.2736 142.996 98.1761C143.069 98.0805 143.177 97.9917 143.319 97.9095L143.607 97.7432ZM161.463 109.778L162.471 110.36L161.722 110.793L160.714 110.211L159.035 111.18L158.116 110.65L159.795 109.681L156.498 107.777L157.039 107.465L165.287 106.441L166.265 107.006L161.463 109.778ZM158.265 107.932L160.545 109.248L164.125 107.181L163.698 107.255L158.265 107.932ZM164.863 110.359L168.831 108.487L172.54 110.629L171.646 111.145L168.712 109.45L166.581 110.445C166.806 110.48 167.05 110.536 167.311 110.614C167.573 110.693 167.834 110.807 168.096 110.958C168.43 111.151 168.672 111.358 168.821 111.578C168.97 111.798 169.033 112.021 169.009 112.249C168.983 112.478 168.87 112.707 168.672 112.937C168.473 113.166 168.192 113.386 167.828 113.596C167.483 113.795 167.117 113.953 166.73 114.069C166.343 114.186 165.951 114.252 165.553 114.267C165.149 114.282 164.744 114.243 164.337 114.149C163.933 114.054 163.539 113.895 163.155 113.674C162.86 113.503 162.623 113.319 162.445 113.12C162.266 112.921 162.158 112.716 162.122 112.504C162.082 112.29 162.122 112.072 162.241 111.85C162.364 111.63 162.575 111.414 162.877 111.202L163.751 111.707C163.396 111.976 163.236 112.243 163.269 112.507C163.305 112.772 163.517 113.017 163.905 113.241C164.123 113.367 164.355 113.457 164.6 113.51C164.848 113.562 165.103 113.579 165.365 113.562C165.619 113.544 165.876 113.494 166.134 113.41C166.396 113.328 166.651 113.215 166.899 113.071C167.124 112.941 167.301 112.801 167.43 112.65C167.563 112.501 167.641 112.349 167.664 112.194C167.684 112.041 167.646 111.889 167.55 111.738C167.454 111.587 167.29 111.445 167.058 111.311C166.906 111.223 166.762 111.153 166.626 111.102C166.497 111.05 166.368 111.01 166.239 110.981C166.109 110.953 165.977 110.932 165.841 110.918C165.709 110.907 165.565 110.898 165.409 110.893L164.863 110.359ZM170.944 118.056L166.207 115.321L166.867 114.94L171.868 114.788C172.315 114.774 172.7 114.756 173.025 114.733C173.349 114.71 173.632 114.679 173.874 114.639C174.112 114.6 174.318 114.553 174.49 114.495C174.665 114.436 174.826 114.364 174.971 114.28C175.15 114.177 175.288 114.063 175.384 113.939C175.486 113.815 175.541 113.688 175.547 113.558C175.551 113.426 175.506 113.295 175.413 113.165C175.327 113.035 175.185 112.913 174.986 112.798C174.745 112.658 174.5 112.557 174.251 112.494C174.006 112.433 173.763 112.405 173.521 112.411C173.273 112.417 173.028 112.455 172.786 112.526C172.548 112.598 172.316 112.699 172.091 112.829L171.168 112.296C171.472 112.12 171.812 111.986 172.186 111.892C172.563 111.796 172.954 111.749 173.358 111.749C173.758 111.747 174.162 111.794 174.569 111.892C174.98 111.991 175.37 112.148 175.741 112.362C176.082 112.559 176.337 112.765 176.506 112.981C176.681 113.197 176.774 113.411 176.784 113.624C176.794 113.836 176.726 114.041 176.58 114.24C176.438 114.441 176.223 114.624 175.935 114.791C175.72 114.915 175.47 115.017 175.185 115.097C174.904 115.176 174.599 115.239 174.271 115.287C173.94 115.332 173.591 115.366 173.223 115.387C172.863 115.408 172.492 115.423 172.111 115.433L168.064 115.527L171.694 117.623L170.944 118.056ZM183.401 117.496L173.693 119.643L172.73 119.087L182.14 117.1L178.227 114.841L179.032 114.377L183.918 117.198L183.401 117.496Z" fill="white"/>
</g>
<g clip-path="url(#clip0_33677_39519)">
<rect width="27.9499" height="21.4999" rx="3.76248" transform="matrix(0.866025 0.5 -0.866025 0.5 92.6814 27.5791)" fill="#F7F6F9"/>
<rect x="-1.53851e-08" y="0.258118" width="32.8086" height="9.15872" transform="matrix(0.866025 0.5 -0.866025 0.5 85.4557 29.3224)" stroke="#929DB6" stroke-width="0.516237"/>
<path d="M92.822 33.9473C92.6455 35.0561 91.822 36.1371 90.3516 36.9861C88.8812 37.835 87.0088 38.3104 85.0882 38.4124" stroke="#929DB6" stroke-width="0.516237"/>
<path d="M83.8357 44.5098C84.0748 43.7005 84.7798 42.8897 85.9303 42.2255C86.9178 41.6553 88.0923 41.2747 89.2917 41.091" stroke="#929DB6" stroke-width="0.516237"/>
<path d="M107.111 35.374C106.872 36.1833 106.167 36.9941 105.016 37.6583C104.029 38.2284 102.854 38.6091 101.655 38.7928" stroke="#929DB6" stroke-width="0.516237"/>
<path d="M98.1228 45.9375C98.2993 44.8286 99.1228 43.7476 100.593 42.8987C102.064 42.0498 103.936 41.5743 105.857 41.4724" stroke="#929DB6" stroke-width="0.516237"/>
</g>
<rect x="1.53851e-08" y="-0.258118" width="28.4661" height="22.0161" rx="4.0206" transform="matrix(0.866025 0.5 -0.866025 0.5 92.4578 27.45)" stroke="#040842" stroke-width="0.516237"/>
<path d="M211.413 109.699C211.672 109.55 211.939 109.431 212.214 109.343C212.492 109.255 212.768 109.201 213.04 109.18C213.311 109.158 213.571 109.171 213.823 109.219C214.078 109.266 214.311 109.351 214.523 109.473C214.713 109.582 214.845 109.698 214.918 109.818C214.997 109.939 215.029 110.066 215.017 110.2L216.774 109.186L217.531 109.623L212.667 112.431L211.979 112.034L212.302 111.808C212.058 111.822 211.822 111.807 211.596 111.762C211.372 111.716 211.161 111.635 210.963 111.521C210.754 111.4 210.609 111.266 210.529 111.12C210.451 110.973 210.432 110.82 210.472 110.663C210.51 110.507 210.603 110.35 210.751 110.191C210.9 110.032 211.099 109.88 211.346 109.738L211.413 109.699ZM212.103 110.175C211.951 110.263 211.822 110.354 211.717 110.449C211.611 110.544 211.54 110.639 211.504 110.733C211.464 110.829 211.464 110.923 211.504 111.014C211.547 111.104 211.637 111.19 211.777 111.27C211.948 111.369 212.126 111.429 212.312 111.451C212.5 111.472 212.692 111.465 212.888 111.429L214.361 110.579C214.42 110.467 214.431 110.357 214.393 110.25C214.359 110.143 214.258 110.04 214.089 109.943C213.947 109.861 213.796 109.808 213.636 109.784C213.477 109.76 213.316 109.761 213.151 109.785C212.982 109.807 212.814 109.849 212.648 109.912C212.483 109.972 212.324 110.047 212.169 110.136L212.103 110.175ZM215.207 113.971C214.953 113.825 214.763 113.666 214.637 113.495C214.512 113.326 214.45 113.155 214.45 112.982C214.448 112.81 214.506 112.642 214.624 112.479C214.746 112.315 214.925 112.166 215.159 112.031L215.289 111.956C215.557 111.801 215.842 111.685 216.144 111.608C216.446 111.532 216.748 111.491 217.05 111.488C217.352 111.484 217.641 111.515 217.918 111.579C218.198 111.644 218.45 111.74 218.671 111.868C218.918 112.011 219.095 112.161 219.2 112.32C219.308 112.477 219.352 112.635 219.333 112.795C219.312 112.956 219.231 113.115 219.089 113.272C218.948 113.43 218.755 113.579 218.51 113.72L218.184 113.909L215.808 112.537L215.793 112.546C215.666 112.646 215.576 112.74 215.523 112.826C215.471 112.913 215.446 113.004 215.45 113.099C215.45 113.196 215.484 113.291 215.552 113.384C215.622 113.478 215.725 113.564 215.862 113.644C216.05 113.752 216.261 113.832 216.496 113.885C216.732 113.936 216.971 113.953 217.211 113.936L217.224 114.397C216.945 114.426 216.622 114.41 216.255 114.349C215.89 114.29 215.54 114.163 215.207 113.971ZM218.054 112.221C217.946 112.159 217.826 112.112 217.693 112.082C217.564 112.051 217.428 112.036 217.284 112.036C217.139 112.037 216.99 112.054 216.838 112.086C216.686 112.117 216.533 112.164 216.378 112.226L217.99 113.157L218.041 113.128C218.14 113.071 218.221 113.004 218.282 112.927C218.345 112.849 218.381 112.769 218.39 112.689C218.398 112.611 218.375 112.532 218.32 112.451C218.269 112.371 218.18 112.294 218.054 112.221ZM222.256 116.03C222.098 116.121 221.936 116.202 221.769 116.271C221.602 116.341 221.435 116.398 221.268 116.443C221.072 116.498 220.872 116.535 220.67 116.554C220.467 116.574 220.268 116.572 220.071 116.549C219.913 116.531 219.758 116.497 219.606 116.448C219.454 116.402 219.309 116.339 219.172 116.26C219.032 116.18 218.923 116.097 218.842 116.011C218.762 115.926 218.709 115.838 218.684 115.748C218.671 115.702 218.663 115.655 218.659 115.609C218.659 115.563 218.663 115.515 218.671 115.467L218.263 115.662L217.579 115.267L222.443 112.459L223.2 112.896L221.427 113.92C221.526 113.914 221.624 113.913 221.721 113.918C221.818 113.923 221.914 113.933 222.009 113.949C222.134 113.97 222.254 114.001 222.37 114.044C222.491 114.087 222.607 114.14 222.719 114.205C222.867 114.29 222.982 114.38 223.064 114.474C223.151 114.568 223.208 114.664 223.235 114.763C223.26 114.845 223.263 114.931 223.241 115.019C223.225 115.106 223.191 115.194 223.14 115.282C223.066 115.403 222.96 115.523 222.82 115.642C222.683 115.763 222.517 115.879 222.323 115.991L222.256 116.03ZM221.566 115.554C221.663 115.498 221.751 115.44 221.829 115.381C221.911 115.321 221.982 115.262 222.041 115.203C222.109 115.13 222.157 115.057 222.187 114.984C222.221 114.911 222.225 114.835 222.199 114.757C222.185 114.705 222.153 114.653 222.104 114.603C222.056 114.553 221.989 114.504 221.905 114.455C221.801 114.396 221.694 114.351 221.582 114.32C221.472 114.288 221.36 114.27 221.246 114.265C221.166 114.26 221.084 114.262 220.999 114.269C220.919 114.276 220.839 114.288 220.758 114.305L219.34 115.125C219.306 115.178 219.283 115.232 219.27 115.285C219.262 115.339 219.264 115.393 219.276 115.446C219.293 115.505 219.327 115.563 219.378 115.622C219.433 115.68 219.507 115.737 219.602 115.792C219.689 115.842 219.778 115.881 219.869 115.909C219.961 115.936 220.054 115.954 220.147 115.964C220.274 115.976 220.401 115.972 220.527 115.953C220.658 115.933 220.787 115.902 220.914 115.858C221.011 115.826 221.109 115.788 221.208 115.743C221.307 115.698 221.405 115.648 221.5 115.593L221.566 115.554ZM225.062 115.631L226.88 116.681L224.081 118.297L225.088 118.878L224.461 119.241L221.636 117.61L222.263 117.247L223.317 117.856L225.487 116.604L224.432 115.995L225.062 115.631ZM226.934 115.688C226.995 115.652 227.062 115.626 227.134 115.609C227.208 115.591 227.284 115.582 227.362 115.584C227.436 115.585 227.509 115.595 227.58 115.615C227.656 115.634 227.728 115.663 227.796 115.702C227.91 115.768 227.972 115.838 227.983 115.913C227.997 115.987 227.965 116.053 227.884 116.112C227.806 116.174 227.709 116.212 227.593 116.225C227.479 116.238 227.366 116.225 227.254 116.187C227.17 116.185 227.09 116.169 227.017 116.141C226.943 116.113 226.88 116.071 226.83 116.015C226.777 115.958 226.76 115.9 226.779 115.843C226.802 115.786 226.854 115.734 226.934 115.688ZM231.14 118.175L230.304 118.657L231.593 119.401L231.026 119.729L229.737 118.985L228.1 119.93C227.973 120.003 227.881 120.073 227.824 120.14C227.771 120.207 227.748 120.271 227.754 120.33C227.759 120.391 227.788 120.45 227.843 120.506C227.898 120.562 227.971 120.616 228.062 120.669C228.127 120.706 228.198 120.744 228.274 120.78C228.35 120.817 228.426 120.851 228.502 120.883C228.574 120.914 228.642 120.943 228.708 120.968C228.777 120.994 228.835 121.015 228.882 121.032L228.442 121.382C228.353 121.37 228.257 121.348 228.154 121.318C228.054 121.287 227.952 121.251 227.846 121.21C227.741 121.168 227.635 121.122 227.53 121.071C227.424 121.022 227.324 120.97 227.229 120.915C227.056 120.815 226.919 120.71 226.82 120.599C226.725 120.488 226.677 120.374 226.675 120.255C226.67 120.138 226.717 120.018 226.814 119.893C226.913 119.77 227.073 119.645 227.292 119.518L228.977 118.546L228.147 118.067L228.714 117.739L229.544 118.218L230.38 117.736L231.14 118.175Z" fill="white"/>
<defs>
<linearGradient id="paint0_linear_33677_39519" x1="21.901" y1="131.497" x2="116.39" y2="37.0074" gradientUnits="userSpaceOnUse">
<stop stop-color="#A4B1D9"/>
<stop offset="1" stop-color="#040A36"/>
</linearGradient>
<linearGradient id="paint1_linear_33677_39519" x1="100.839" y1="0" x2="100.839" y2="131.326" gradientUnits="userSpaceOnUse">
<stop stop-color="#000670"/>
<stop offset="1" stop-color="#010548"/>
</linearGradient>
<linearGradient id="paint2_linear_33677_39519" x1="21.8725" y1="131.326" x2="96.5139" y2="18.4144" gradientUnits="userSpaceOnUse">
<stop stop-color="#0A0D3A"/>
<stop offset="1" stop-color="#172E72"/>
</linearGradient>
<clipPath id="clip0_33677_39519">
<rect width="27.9499" height="21.4999" rx="3.76248" transform="matrix(0.866025 0.5 -0.866025 0.5 92.6814 27.5791)" fill="white"/>
</clipPath>
</defs>
</svg>
