<svg width="171" height="120" viewBox="0 0 171 120" fill="none" xmlns="http://www.w3.org/2000/svg">
<g filter="url(#filter0_ddd_33784_34388)">
<g clip-path="url(#clip0_33784_34388)">
<rect x="12" y="2" width="147" height="96" rx="6" fill="white"/>
<path d="M29.1186 22.8182H30.983L34.2244 30.733H34.3438L37.5852 22.8182H39.4496V33H37.9879V25.6321H37.8935L34.8906 32.9851H33.6776L30.6747 25.6271H30.5803V33H29.1186V22.8182ZM43.786 33.169C43.3021 33.169 42.8646 33.0795 42.4735 32.9006C42.0824 32.7183 41.7725 32.4548 41.5439 32.1101C41.3185 31.7654 41.2058 31.3428 41.2058 30.8423C41.2058 30.4115 41.2886 30.0568 41.4544 29.7784C41.6201 29.5 41.8438 29.2796 42.1255 29.1172C42.4073 28.9548 42.7221 28.8321 43.0701 28.7493C43.4181 28.6664 43.7728 28.6035 44.1341 28.5604C44.5914 28.5073 44.9627 28.4643 45.2477 28.4311C45.5327 28.3946 45.7399 28.3366 45.8691 28.2571C45.9984 28.1776 46.063 28.0483 46.063 27.8693V27.8345C46.063 27.4003 45.9404 27.0639 45.6951 26.8253C45.4532 26.5866 45.0919 26.4673 44.6113 26.4673C44.1109 26.4673 43.7164 26.5784 43.4281 26.8004C43.1431 27.0192 42.9458 27.2628 42.8365 27.5312L41.4395 27.2131C41.6052 26.7491 41.8471 26.3745 42.1653 26.0895C42.4868 25.8011 42.8564 25.5923 43.274 25.4631C43.6916 25.3305 44.1307 25.2642 44.5914 25.2642C44.8964 25.2642 45.2195 25.3007 45.5609 25.3736C45.9056 25.4432 46.2271 25.5724 46.5254 25.7614C46.827 25.9503 47.0739 26.2204 47.2662 26.5717C47.4584 26.9197 47.5545 27.3722 47.5545 27.929V33H46.1028V31.956H46.0431C45.947 32.1482 45.8029 32.3371 45.6106 32.5227C45.4184 32.7083 45.1715 32.8625 44.8699 32.9851C44.5682 33.1077 44.207 33.169 43.786 33.169ZM44.1092 31.9759C44.5202 31.9759 44.8715 31.8946 45.1632 31.7322C45.4582 31.5698 45.6819 31.3577 45.8343 31.0959C45.9901 30.8307 46.068 30.5473 46.068 30.2457V29.2614C46.015 29.3144 45.9122 29.3641 45.7598 29.4105C45.6106 29.4536 45.4399 29.4917 45.2477 29.5249C45.0555 29.5547 44.8682 29.5829 44.6859 29.6094C44.5036 29.6326 44.3511 29.6525 44.2285 29.669C43.9402 29.7055 43.6767 29.7668 43.438 29.853C43.2027 29.9392 43.0138 30.0634 42.8713 30.2259C42.7321 30.3849 42.6625 30.5971 42.6625 30.8622C42.6625 31.2301 42.7984 31.5085 43.0701 31.6974C43.3419 31.883 43.6883 31.9759 44.1092 31.9759ZM49.5344 33V25.3636H50.9712V26.5767H51.0508C51.19 26.1657 51.4353 25.8426 51.7866 25.6072C52.1412 25.3686 52.5423 25.2493 52.9897 25.2493C53.0825 25.2493 53.1919 25.2526 53.3178 25.2592C53.4471 25.2659 53.5482 25.2741 53.6211 25.2841V26.706C53.5614 26.6894 53.4554 26.6712 53.3029 26.6513C53.1504 26.6281 52.998 26.6165 52.8455 26.6165C52.4942 26.6165 52.181 26.6911 51.9059 26.8402C51.6341 26.986 51.4187 27.1899 51.2596 27.4517C51.1005 27.7102 51.021 28.0052 51.021 28.3366V33H49.5344ZM56.2747 30.4098L56.2647 28.5952H56.5233L59.5659 25.3636H61.3457L57.8755 29.0426H57.6419L56.2747 30.4098ZM54.9075 33V22.8182H56.394V33H54.9075ZM59.7299 33L56.9956 29.3707L58.0197 28.3317L61.5545 33H59.7299ZM68.6278 33.169C68.1439 33.169 67.7064 33.0795 67.3153 32.9006C66.9242 32.7183 66.6143 32.4548 66.3857 32.1101C66.1603 31.7654 66.0476 31.3428 66.0476 30.8423C66.0476 30.4115 66.1304 30.0568 66.2962 29.7784C66.4619 29.5 66.6856 29.2796 66.9673 29.1172C67.2491 28.9548 67.5639 28.8321 67.9119 28.7493C68.2599 28.6664 68.6146 28.6035 68.9759 28.5604C69.4332 28.5073 69.8045 28.4643 70.0895 28.4311C70.3745 28.3946 70.5817 28.3366 70.7109 28.2571C70.8402 28.1776 70.9048 28.0483 70.9048 27.8693V27.8345C70.9048 27.4003 70.7822 27.0639 70.5369 26.8253C70.295 26.5866 69.9337 26.4673 69.4531 26.4673C68.9527 26.4673 68.5582 26.5784 68.2699 26.8004C67.9848 27.0192 67.7876 27.2628 67.6783 27.5312L66.2812 27.2131C66.447 26.7491 66.6889 26.3745 67.0071 26.0895C67.3286 25.8011 67.6982 25.5923 68.1158 25.4631C68.5334 25.3305 68.9725 25.2642 69.4332 25.2642C69.7382 25.2642 70.0613 25.3007 70.4027 25.3736C70.7474 25.4432 71.0689 25.5724 71.3672 25.7614C71.6688 25.9503 71.9157 26.2204 72.108 26.5717C72.3002 26.9197 72.3963 27.3722 72.3963 27.929V33H70.9446V31.956H70.8849C70.7888 32.1482 70.6446 32.3371 70.4524 32.5227C70.2602 32.7083 70.0133 32.8625 69.7116 32.9851C69.41 33.1077 69.0488 33.169 68.6278 33.169ZM68.951 31.9759C69.362 31.9759 69.7133 31.8946 70.005 31.7322C70.3 31.5698 70.5237 31.3577 70.6761 31.0959C70.8319 30.8307 70.9098 30.5473 70.9098 30.2457V29.2614C70.8568 29.3144 70.754 29.3641 70.6016 29.4105C70.4524 29.4536 70.2817 29.4917 70.0895 29.5249C69.8973 29.5547 69.71 29.5829 69.5277 29.6094C69.3454 29.6326 69.1929 29.6525 69.0703 29.669C68.782 29.7055 68.5185 29.7668 68.2798 29.853C68.0445 29.9392 67.8556 30.0634 67.7131 30.2259C67.5739 30.3849 67.5043 30.5971 67.5043 30.8622C67.5043 31.2301 67.6402 31.5085 67.9119 31.6974C68.1837 31.883 68.5301 31.9759 68.951 31.9759ZM80.0985 27.228L78.7512 27.4666C78.6949 27.2943 78.6054 27.1302 78.4828 26.9744C78.3635 26.8187 78.2011 26.6911 77.9956 26.5916C77.7901 26.4922 77.5332 26.4425 77.225 26.4425C76.804 26.4425 76.4527 26.5369 76.171 26.7259C75.8893 26.9115 75.7484 27.1518 75.7484 27.4467C75.7484 27.7019 75.8429 27.9074 76.0318 28.0632C76.2207 28.219 76.5256 28.3466 76.9466 28.446L78.1596 28.7244C78.8623 28.8868 79.3859 29.1371 79.7306 29.4751C80.0753 29.8132 80.2477 30.2524 80.2477 30.7926C80.2477 31.25 80.1151 31.6577 79.85 32.0156C79.5881 32.3703 79.2219 32.6487 78.7512 32.8509C78.2839 33.053 77.742 33.1541 77.1255 33.1541C76.2704 33.1541 75.5727 32.9718 75.0325 32.6072C74.4922 32.2393 74.1608 31.7173 74.0382 31.0412L75.475 30.8224C75.5645 31.197 75.7484 31.4804 76.0268 31.6726C76.3052 31.8615 76.6681 31.956 77.1156 31.956C77.6028 31.956 77.9922 31.8549 78.2839 31.6527C78.5756 31.4472 78.7214 31.197 78.7214 30.902C78.7214 30.6634 78.6319 30.4628 78.4529 30.3004C78.2773 30.138 78.0072 30.0154 77.6426 29.9325L76.35 29.6491C75.6374 29.4867 75.1104 29.2282 74.769 28.8736C74.4309 28.5189 74.2619 28.0698 74.2619 27.5263C74.2619 27.0755 74.3878 26.6811 74.6397 26.343C74.8916 26.005 75.2396 25.7415 75.6838 25.5526C76.1279 25.3603 76.6367 25.2642 77.21 25.2642C78.0353 25.2642 78.685 25.4432 79.1589 25.8011C79.6329 26.1558 79.9461 26.6314 80.0985 27.228ZM85.5872 35.8636V25.3636H87.0389V26.6016H87.1632C87.2493 26.4425 87.3736 26.2585 87.536 26.0497C87.6984 25.8409 87.9238 25.6586 88.2122 25.5028C88.5005 25.3438 88.8817 25.2642 89.3556 25.2642C89.9721 25.2642 90.5223 25.42 91.0062 25.7315C91.4901 26.0431 91.8696 26.4922 92.1447 27.0788C92.4231 27.6655 92.5623 28.3714 92.5623 29.1967C92.5623 30.022 92.4248 30.7296 92.1497 31.3196C91.8746 31.9062 91.4967 32.3587 91.0162 32.6768C90.5356 32.9917 89.987 33.1491 89.3706 33.1491C88.9065 33.1491 88.527 33.0713 88.2321 32.9155C87.9404 32.7597 87.7117 32.5774 87.546 32.3686C87.3803 32.1598 87.2527 31.9742 87.1632 31.8118H87.0737V35.8636H85.5872ZM87.0439 29.1818C87.0439 29.7187 87.1217 30.1894 87.2775 30.5938C87.4333 30.9981 87.6587 31.3146 87.9537 31.5433C88.2486 31.7687 88.6099 31.8814 89.0375 31.8814C89.4816 31.8814 89.8528 31.7637 90.1511 31.5284C90.4494 31.2898 90.6748 30.9666 90.8272 30.5589C90.983 30.1513 91.0609 29.6922 91.0609 29.1818C91.0609 28.678 90.9847 28.2256 90.8322 27.8246C90.6831 27.4235 90.4577 27.107 90.1561 26.875C89.8578 26.643 89.4849 26.527 89.0375 26.527C88.6066 26.527 88.242 26.638 87.9437 26.8601C87.6487 27.0821 87.425 27.392 87.2725 27.7898C87.1201 28.1875 87.0439 28.6515 87.0439 29.1818ZM96.4501 33.169C95.9662 33.169 95.5287 33.0795 95.1376 32.9006C94.7465 32.7183 94.4366 32.4548 94.2079 32.1101C93.9825 31.7654 93.8699 31.3428 93.8699 30.8423C93.8699 30.4115 93.9527 30.0568 94.1184 29.7784C94.2842 29.5 94.5079 29.2796 94.7896 29.1172C95.0713 28.9548 95.3862 28.8321 95.7342 28.7493C96.0822 28.6664 96.4368 28.6035 96.7981 28.5604C97.2555 28.5073 97.6267 28.4643 97.9118 28.4311C98.1968 28.3946 98.4039 28.3366 98.5332 28.2571C98.6625 28.1776 98.7271 28.0483 98.7271 27.8693V27.8345C98.7271 27.4003 98.6045 27.0639 98.3592 26.8253C98.1172 26.5866 97.756 26.4673 97.2754 26.4673C96.7749 26.4673 96.3805 26.5784 96.0922 26.8004C95.8071 27.0192 95.6099 27.2628 95.5005 27.5312L94.1035 27.2131C94.2692 26.7491 94.5112 26.3745 94.8294 26.0895C95.1509 25.8011 95.5204 25.5923 95.938 25.4631C96.3556 25.3305 96.7948 25.2642 97.2555 25.2642C97.5604 25.2642 97.8836 25.3007 98.225 25.3736C98.5697 25.4432 98.8912 25.5724 99.1895 25.7614C99.4911 25.9503 99.738 26.2204 99.9302 26.5717C100.122 26.9197 100.219 27.3722 100.219 27.929V33H98.7669V31.956H98.7072C98.6111 32.1482 98.4669 32.3371 98.2747 32.5227C98.0824 32.7083 97.8355 32.8625 97.5339 32.9851C97.2323 33.1077 96.871 33.169 96.4501 33.169ZM96.7733 31.9759C97.1842 31.9759 97.5356 31.8946 97.8272 31.7322C98.1222 31.5698 98.3459 31.3577 98.4984 31.0959C98.6542 30.8307 98.7321 30.5473 98.7321 30.2457V29.2614C98.679 29.3144 98.5763 29.3641 98.4238 29.4105C98.2747 29.4536 98.104 29.4917 97.9118 29.5249C97.7195 29.5547 97.5323 29.5829 97.35 29.6094C97.1677 29.6326 97.0152 29.6525 96.8926 29.669C96.6042 29.7055 96.3407 29.7668 96.1021 29.853C95.8668 29.9392 95.6779 30.0634 95.5353 30.2259C95.3961 30.3849 95.3265 30.5971 95.3265 30.8622C95.3265 31.2301 95.4624 31.5085 95.7342 31.6974C96.006 31.883 96.3523 31.9759 96.7733 31.9759ZM102.199 33V25.3636H103.685V33H102.199ZM102.949 24.1854C102.691 24.1854 102.469 24.0992 102.283 23.9268C102.101 23.7512 102.01 23.5424 102.01 23.3004C102.01 23.0552 102.101 22.8464 102.283 22.674C102.469 22.4983 102.691 22.4105 102.949 22.4105C103.208 22.4105 103.428 22.4983 103.61 22.674C103.796 22.8464 103.889 23.0552 103.889 23.3004C103.889 23.5424 103.796 23.7512 103.61 23.9268C103.428 24.0992 103.208 24.1854 102.949 24.1854ZM108.544 33.1491C107.927 33.1491 107.377 32.9917 106.893 32.6768C106.412 32.3587 106.035 31.9062 105.759 31.3196C105.488 30.7296 105.352 30.022 105.352 29.1967C105.352 28.3714 105.489 27.6655 105.764 27.0788C106.043 26.4922 106.424 26.0431 106.908 25.7315C107.392 25.42 107.94 25.2642 108.553 25.2642C109.027 25.2642 109.409 25.3438 109.697 25.5028C109.989 25.6586 110.214 25.8409 110.373 26.0497C110.535 26.2585 110.661 26.4425 110.751 26.6016H110.84V22.8182H112.327V33H110.875V31.8118H110.751C110.661 31.9742 110.532 32.1598 110.363 32.3686C110.197 32.5774 109.969 32.7597 109.677 32.9155C109.385 33.0713 109.008 33.1491 108.544 33.1491ZM108.872 31.8814C109.299 31.8814 109.66 31.7687 109.955 31.5433C110.254 31.3146 110.479 30.9981 110.632 30.5938C110.787 30.1894 110.865 29.7187 110.865 29.1818C110.865 28.6515 110.789 28.1875 110.637 27.7898C110.484 27.392 110.26 27.0821 109.965 26.8601C109.67 26.638 109.306 26.527 108.872 26.527C108.424 26.527 108.051 26.643 107.753 26.875C107.455 27.107 107.229 27.4235 107.077 27.8246C106.928 28.2256 106.853 28.678 106.853 29.1818C106.853 29.6922 106.929 30.1513 107.082 30.5589C107.234 30.9666 107.46 31.2898 107.758 31.5284C108.06 31.7637 108.431 31.8814 108.872 31.8814Z" fill="#111827"/>
<rect width="147" height="44" transform="translate(12 50)" fill="#F9FAFB"/>
<path d="M30.0085 66.8182L32.8423 75.1108H32.9567L35.7905 66.8182H37.451L33.7869 77H32.0121L28.348 66.8182H30.0085ZM38.802 77V69.3636H40.2885V77H38.802ZM39.5527 68.1854C39.2942 68.1854 39.0721 68.0992 38.8865 67.9268C38.7042 67.7512 38.6131 67.5424 38.6131 67.3004C38.6131 67.0552 38.7042 66.8464 38.8865 66.674C39.0721 66.4983 39.2942 66.4105 39.5527 66.4105C39.8113 66.4105 40.0317 66.4983 40.214 66.674C40.3996 66.8464 40.4924 67.0552 40.4924 67.3004C40.4924 67.5424 40.3996 67.7512 40.214 67.9268C40.0317 68.0992 39.8113 68.1854 39.5527 68.1854ZM45.5795 77.1541C44.8272 77.1541 44.1792 76.9934 43.6357 76.6719C43.0954 76.3471 42.6778 75.8913 42.3828 75.3047C42.0911 74.7147 41.9453 74.0237 41.9453 73.2315C41.9453 72.4493 42.0911 71.7599 42.3828 71.1634C42.6778 70.5668 43.0888 70.1011 43.6158 69.7663C44.1461 69.4316 44.7659 69.2642 45.4751 69.2642C45.906 69.2642 46.3236 69.3355 46.728 69.478C47.1323 69.6205 47.4953 69.8442 47.8168 70.1491C48.1383 70.4541 48.3918 70.8501 48.5774 71.3374C48.763 71.8213 48.8558 72.4096 48.8558 73.1023V73.6293H42.7855V72.5156H47.3991C47.3991 72.1245 47.3196 71.7782 47.1605 71.4766C47.0014 71.1716 46.7777 70.9313 46.4893 70.7557C46.2043 70.58 45.8696 70.4922 45.4851 70.4922C45.0675 70.4922 44.7029 70.5949 44.3913 70.8004C44.0831 71.0026 43.8445 71.2678 43.6754 71.5959C43.5097 71.9207 43.4268 72.2737 43.4268 72.6548V73.5249C43.4268 74.0353 43.5163 74.4695 43.6953 74.8274C43.8776 75.1854 44.1312 75.4588 44.456 75.6477C44.7808 75.8333 45.1603 75.9261 45.5945 75.9261C45.8762 75.9261 46.133 75.8864 46.3651 75.8068C46.5971 75.724 46.7976 75.6013 46.9666 75.4389C47.1357 75.2765 47.2649 75.076 47.3544 74.8374L48.7614 75.0909C48.6487 75.5052 48.4465 75.8681 48.1548 76.1797C47.8665 76.4879 47.5036 76.7282 47.0661 76.9006C46.6319 77.0696 46.1364 77.1541 45.5795 77.1541ZM52.147 77L49.8999 69.3636H51.4361L52.9325 74.9716H53.0071L54.5085 69.3636H56.0447L57.5362 74.9467H57.6108L59.0973 69.3636H60.6335L58.3913 77H56.875L55.3239 71.4865H55.2095L53.6584 77H52.147ZM68.9659 77.1541C68.2268 77.1541 67.5904 76.9867 67.0568 76.652C66.5265 76.3139 66.1188 75.8482 65.8338 75.255C65.5488 74.6617 65.4062 73.9822 65.4062 73.2166C65.4062 72.4411 65.5521 71.7566 65.8438 71.1634C66.1354 70.5668 66.5464 70.1011 67.0767 69.7663C67.607 69.4316 68.2318 69.2642 68.951 69.2642C69.531 69.2642 70.0481 69.3719 70.5021 69.5874C70.9562 69.7995 71.3224 70.0978 71.6009 70.4822C71.8826 70.8667 72.05 71.3158 72.103 71.8295H70.6562C70.5767 71.4716 70.3944 71.1634 70.1094 70.9048C69.8277 70.6463 69.4498 70.517 68.9759 70.517C68.5616 70.517 68.1986 70.6264 67.8871 70.8452C67.5788 71.0606 67.3385 71.3688 67.1662 71.7699C66.9938 72.1676 66.9077 72.6383 66.9077 73.1818C66.9077 73.7386 66.9922 74.2192 67.1612 74.6236C67.3303 75.0279 67.5689 75.3411 67.8771 75.5632C68.1887 75.7853 68.5549 75.8963 68.9759 75.8963C69.2576 75.8963 69.5128 75.8449 69.7415 75.7422C69.9735 75.6361 70.1674 75.4853 70.3232 75.2898C70.4822 75.0942 70.5933 74.8589 70.6562 74.5838H72.103C72.05 75.0777 71.8892 75.5185 71.6207 75.9062C71.3523 76.294 70.9927 76.599 70.5419 76.821C70.0945 77.0431 69.5691 77.1541 68.9659 77.1541ZM75.915 77.169C75.431 77.169 74.9935 77.0795 74.6025 76.9006C74.2114 76.7183 73.9015 76.4548 73.6728 76.1101C73.4474 75.7654 73.3347 75.3428 73.3347 74.8423C73.3347 74.4115 73.4176 74.0568 73.5833 73.7784C73.749 73.5 73.9727 73.2796 74.2544 73.1172C74.5362 72.9548 74.851 72.8321 75.199 72.7493C75.5471 72.6664 75.9017 72.6035 76.263 72.5604C76.7203 72.5073 77.0916 72.4643 77.3766 72.4311C77.6616 72.3946 77.8688 72.3366 77.998 72.2571C78.1273 72.1776 78.1919 72.0483 78.1919 71.8693V71.8345C78.1919 71.4003 78.0693 71.0639 77.824 70.8253C77.5821 70.5866 77.2208 70.4673 76.7402 70.4673C76.2398 70.4673 75.8453 70.5784 75.557 70.8004C75.272 71.0192 75.0748 71.2628 74.9654 71.5312L73.5684 71.2131C73.7341 70.7491 73.976 70.3745 74.2942 70.0895C74.6157 69.8011 74.9853 69.5923 75.4029 69.4631C75.8205 69.3305 76.2596 69.2642 76.7203 69.2642C77.0253 69.2642 77.3484 69.3007 77.6898 69.3736C78.0345 69.4432 78.356 69.5724 78.6543 69.7614C78.9559 69.9503 79.2028 70.2204 79.3951 70.5717C79.5873 70.9197 79.6834 71.3722 79.6834 71.929V77H78.2317V75.956H78.1721C78.0759 76.1482 77.9318 76.3371 77.7395 76.5227C77.5473 76.7083 77.3004 76.8625 76.9988 76.9851C76.6971 77.1077 76.3359 77.169 75.915 77.169ZM76.2381 75.9759C76.6491 75.9759 77.0004 75.8946 77.2921 75.7322C77.5871 75.5698 77.8108 75.3577 77.9632 75.0959C78.119 74.8307 78.1969 74.5473 78.1969 74.2457V73.2614C78.1439 73.3144 78.0411 73.3641 77.8887 73.4105C77.7395 73.4536 77.5688 73.4917 77.3766 73.5249C77.1844 73.5547 76.9971 73.5829 76.8148 73.6094C76.6325 73.6326 76.4801 73.6525 76.3574 73.669C76.0691 73.7055 75.8056 73.7668 75.5669 73.853C75.3316 73.9392 75.1427 74.0634 75.0002 74.2259C74.861 74.3849 74.7914 74.5971 74.7914 74.8622C74.7914 75.2301 74.9273 75.5085 75.199 75.6974C75.4708 75.883 75.8172 75.9759 76.2381 75.9759ZM81.6634 77V69.3636H83.1001V70.5767H83.1797C83.3189 70.1657 83.5642 69.8426 83.9155 69.6072C84.2701 69.3686 84.6712 69.2493 85.1186 69.2493C85.2114 69.2493 85.3208 69.2526 85.4467 69.2592C85.576 69.2659 85.6771 69.2741 85.75 69.2841V70.706C85.6903 70.6894 85.5843 70.6712 85.4318 70.6513C85.2794 70.6281 85.1269 70.6165 84.9744 70.6165C84.6231 70.6165 84.3099 70.6911 84.0348 70.8402C83.763 70.986 83.5476 71.1899 83.3885 71.4517C83.2294 71.7102 83.1499 72.0052 83.1499 72.3366V77H81.6634ZM89.6216 77.1491C89.0051 77.1491 88.455 76.9917 87.9711 76.6768C87.4905 76.3587 87.1126 75.9062 86.8375 75.3196C86.5658 74.7296 86.4299 74.022 86.4299 73.1967C86.4299 72.3714 86.5674 71.6655 86.8425 71.0788C87.1209 70.4922 87.5021 70.0431 87.986 69.7315C88.4699 69.42 89.0184 69.2642 89.6316 69.2642C90.1055 69.2642 90.4867 69.3438 90.775 69.5028C91.0667 69.6586 91.2921 69.8409 91.4512 70.0497C91.6136 70.2585 91.7395 70.4425 91.829 70.6016H91.9185V66.8182H93.405V77H91.9533V75.8118H91.829C91.7395 75.9742 91.6103 76.1598 91.4412 76.3686C91.2755 76.5774 91.0468 76.7597 90.7551 76.9155C90.4635 77.0713 90.0856 77.1491 89.6216 77.1491ZM89.9498 75.8814C90.3773 75.8814 90.7386 75.7687 91.0336 75.5433C91.3319 75.3146 91.5572 74.9981 91.7097 74.5938C91.8655 74.1894 91.9434 73.7187 91.9434 73.1818C91.9434 72.6515 91.8671 72.1875 91.7147 71.7898C91.5622 71.392 91.3385 71.0821 91.0435 70.8601C90.7485 70.638 90.3839 70.527 89.9498 70.527C89.5023 70.527 89.1294 70.643 88.8311 70.875C88.5328 71.107 88.3075 71.4235 88.155 71.8246C88.0059 72.2256 87.9313 72.678 87.9313 73.1818C87.9313 73.6922 88.0075 74.1513 88.16 74.5589C88.3124 74.9666 88.5378 75.2898 88.8361 75.5284C89.1377 75.7637 89.5089 75.8814 89.9498 75.8814ZM102.09 77.1491C101.474 77.1491 100.924 76.9917 100.44 76.6768C99.9592 76.3587 99.5814 75.9062 99.3063 75.3196C99.0345 74.7296 98.8986 74.022 98.8986 73.1967C98.8986 72.3714 99.0362 71.6655 99.3113 71.0788C99.5897 70.4922 99.9708 70.0431 100.455 69.7315C100.939 69.42 101.487 69.2642 102.1 69.2642C102.574 69.2642 102.955 69.3438 103.244 69.5028C103.535 69.6586 103.761 69.8409 103.92 70.0497C104.082 70.2585 104.208 70.4425 104.298 70.6016H104.387V66.8182H105.874V77H104.422V75.8118H104.298C104.208 75.9742 104.079 76.1598 103.91 76.3686C103.744 76.5774 103.516 76.7597 103.224 76.9155C102.932 77.0713 102.554 77.1491 102.09 77.1491ZM102.419 75.8814C102.846 75.8814 103.207 75.7687 103.502 75.5433C103.801 75.3146 104.026 74.9981 104.178 74.5938C104.334 74.1894 104.412 73.7187 104.412 73.1818C104.412 72.6515 104.336 72.1875 104.183 71.7898C104.031 71.392 103.807 71.0821 103.512 70.8601C103.217 70.638 102.853 70.527 102.419 70.527C101.971 70.527 101.598 70.643 101.3 70.875C101.002 71.107 100.776 71.4235 100.624 71.8246C100.475 72.2256 100.4 72.678 100.4 73.1818C100.4 73.6922 100.476 74.1513 100.629 74.5589C100.781 74.9666 101.007 75.2898 101.305 75.5284C101.606 75.7637 101.978 75.8814 102.419 75.8814ZM111.287 77.1541C110.534 77.1541 109.886 76.9934 109.343 76.6719C108.802 76.3471 108.385 75.8913 108.09 75.3047C107.798 74.7147 107.652 74.0237 107.652 73.2315C107.652 72.4493 107.798 71.7599 108.09 71.1634C108.385 70.5668 108.796 70.1011 109.323 69.7663C109.853 69.4316 110.473 69.2642 111.182 69.2642C111.613 69.2642 112.031 69.3355 112.435 69.478C112.839 69.6205 113.202 69.8442 113.524 70.1491C113.845 70.4541 114.099 70.8501 114.284 71.3374C114.47 71.8213 114.563 72.4096 114.563 73.1023V73.6293H108.493V72.5156H113.106C113.106 72.1245 113.027 71.7782 112.868 71.4766C112.708 71.1716 112.485 70.9313 112.196 70.7557C111.911 70.58 111.577 70.4922 111.192 70.4922C110.775 70.4922 110.41 70.5949 110.098 70.8004C109.79 71.0026 109.551 71.2678 109.382 71.5959C109.217 71.9207 109.134 72.2737 109.134 72.6548V73.5249C109.134 74.0353 109.223 74.4695 109.402 74.8274C109.585 75.1854 109.838 75.4588 110.163 75.6477C110.488 75.8333 110.867 75.9261 111.301 75.9261C111.583 75.9261 111.84 75.8864 112.072 75.8068C112.304 75.724 112.505 75.6013 112.674 75.4389C112.843 75.2765 112.972 75.076 113.061 74.8374L114.468 75.0909C114.356 75.5052 114.154 75.8681 113.862 76.1797C113.574 76.4879 113.211 76.7282 112.773 76.9006C112.339 77.0696 111.843 77.1541 111.287 77.1541ZM119.777 69.3636V70.5568H115.606V69.3636H119.777ZM116.724 67.5341H118.211V74.7578C118.211 75.0462 118.254 75.2633 118.34 75.4091C118.426 75.5516 118.537 75.6494 118.673 75.7024C118.812 75.7521 118.963 75.777 119.126 75.777C119.245 75.777 119.349 75.7687 119.439 75.7521C119.528 75.7356 119.598 75.7223 119.648 75.7124L119.916 76.9403C119.83 76.9735 119.707 77.0066 119.548 77.0398C119.389 77.0762 119.19 77.0961 118.952 77.0994C118.56 77.1061 118.196 77.0365 117.858 76.8906C117.52 76.7448 117.246 76.5194 117.037 76.2145C116.829 75.9096 116.724 75.5268 116.724 75.0661V67.5341ZM123.643 77.169C123.16 77.169 122.722 77.0795 122.331 76.9006C121.94 76.7183 121.63 76.4548 121.401 76.1101C121.176 75.7654 121.063 75.3428 121.063 74.8423C121.063 74.4115 121.146 74.0568 121.312 73.7784C121.478 73.5 121.701 73.2796 121.983 73.1172C122.265 72.9548 122.58 72.8321 122.928 72.7493C123.276 72.6664 123.63 72.6035 123.991 72.5604C124.449 72.5073 124.82 72.4643 125.105 72.4311C125.39 72.3946 125.597 72.3366 125.727 72.2571C125.856 72.1776 125.92 72.0483 125.92 71.8693V71.8345C125.92 71.4003 125.798 71.0639 125.553 70.8253C125.311 70.5866 124.949 70.4673 124.469 70.4673C123.968 70.4673 123.574 70.5784 123.286 70.8004C123 71.0192 122.803 71.2628 122.694 71.5312L121.297 71.2131C121.463 70.7491 121.705 70.3745 122.023 70.0895C122.344 69.8011 122.714 69.5923 123.131 69.4631C123.549 69.3305 123.988 69.2642 124.449 69.2642C124.754 69.2642 125.077 69.3007 125.418 69.3736C125.763 69.4432 126.085 69.5724 126.383 69.7614C126.684 69.9503 126.931 70.2204 127.124 70.5717C127.316 70.9197 127.412 71.3722 127.412 71.929V77H125.96V75.956H125.901C125.804 76.1482 125.66 76.3371 125.468 76.5227C125.276 76.7083 125.029 76.8625 124.727 76.9851C124.426 77.1077 124.064 77.169 123.643 77.169ZM123.967 75.9759C124.378 75.9759 124.729 75.8946 125.021 75.7322C125.316 75.5698 125.539 75.3577 125.692 75.0959C125.848 74.8307 125.925 74.5473 125.925 74.2457V73.2614C125.872 73.3144 125.77 73.3641 125.617 73.4105C125.468 73.4536 125.297 73.4917 125.105 73.5249C124.913 73.5547 124.726 73.5829 124.543 73.6094C124.361 73.6326 124.209 73.6525 124.086 73.669C123.798 73.7055 123.534 73.7668 123.295 73.853C123.06 73.9392 122.871 74.0634 122.729 74.2259C122.589 74.3849 122.52 74.5971 122.52 74.8622C122.52 75.2301 122.656 75.5085 122.928 75.6974C123.199 75.883 123.546 75.9759 123.967 75.9759ZM129.392 77V69.3636H130.878V77H129.392ZM130.143 68.1854C129.884 68.1854 129.662 68.0992 129.476 67.9268C129.294 67.7512 129.203 67.5424 129.203 67.3004C129.203 67.0552 129.294 66.8464 129.476 66.674C129.662 66.4983 129.884 66.4105 130.143 66.4105C130.401 66.4105 130.622 66.4983 130.804 66.674C130.989 66.8464 131.082 67.0552 131.082 67.3004C131.082 67.5424 130.989 67.7512 130.804 67.9268C130.622 68.0992 130.401 68.1854 130.143 68.1854ZM134.365 66.8182V77H132.878V66.8182H134.365ZM142.087 71.228L140.74 71.4666C140.683 71.2943 140.594 71.1302 140.471 70.9744C140.352 70.8187 140.189 70.6911 139.984 70.5916C139.778 70.4922 139.521 70.4425 139.213 70.4425C138.792 70.4425 138.441 70.5369 138.159 70.7259C137.878 70.9115 137.737 71.1518 137.737 71.4467C137.737 71.7019 137.831 71.9074 138.02 72.0632C138.209 72.219 138.514 72.3466 138.935 72.446L140.148 72.7244C140.851 72.8868 141.374 73.1371 141.719 73.4751C142.064 73.8132 142.236 74.2524 142.236 74.7926C142.236 75.25 142.103 75.6577 141.838 76.0156C141.576 76.3703 141.21 76.6487 140.74 76.8509C140.272 77.053 139.73 77.1541 139.114 77.1541C138.259 77.1541 137.561 76.9718 137.021 76.6072C136.481 76.2393 136.149 75.7173 136.026 75.0412L137.463 74.8224C137.553 75.197 137.737 75.4804 138.015 75.6726C138.294 75.8615 138.656 75.956 139.104 75.956C139.591 75.956 139.981 75.8549 140.272 75.6527C140.564 75.4472 140.71 75.197 140.71 74.902C140.71 74.6634 140.62 74.4628 140.441 74.3004C140.266 74.138 139.995 74.0154 139.631 73.9325L138.338 73.6491C137.626 73.4867 137.099 73.2282 136.757 72.8736C136.419 72.5189 136.25 72.0698 136.25 71.5263C136.25 71.0755 136.376 70.6811 136.628 70.343C136.88 70.005 137.228 69.7415 137.672 69.5526C138.116 69.3603 138.625 69.2642 139.198 69.2642C140.024 69.2642 140.673 69.4432 141.147 69.8011C141.621 70.1558 141.934 70.6314 142.087 71.228Z" fill="#111827"/>
</g>
</g>
<defs>
<filter id="filter0_ddd_33784_34388" x="0" y="0" width="171" height="120" filterUnits="userSpaceOnUse" color-interpolation-filters="sRGB">
<feFlood flood-opacity="0" result="BackgroundImageFix"/>
<feColorMatrix in="SourceAlpha" type="matrix" values="0 0 0 0 0 0 0 0 0 0 0 0 0 0 0 0 0 0 127 0" result="hardAlpha"/>
<feMorphology radius="1" operator="dilate" in="SourceAlpha" result="effect1_dropShadow_33784_34388"/>
<feOffset/>
<feColorMatrix type="matrix" values="0 0 0 0 0 0 0 0 0 0 0 0 0 0 0 0 0 0 0.05 0"/>
<feBlend mode="normal" in2="BackgroundImageFix" result="effect1_dropShadow_33784_34388"/>
<feColorMatrix in="SourceAlpha" type="matrix" values="0 0 0 0 0 0 0 0 0 0 0 0 0 0 0 0 0 0 127 0" result="hardAlpha"/>
<feMorphology radius="2" operator="erode" in="SourceAlpha" result="effect2_dropShadow_33784_34388"/>
<feOffset dy="4"/>
<feGaussianBlur stdDeviation="3"/>
<feColorMatrix type="matrix" values="0 0 0 0 0 0 0 0 0 0 0 0 0 0 0 0 0 0 0.05 0"/>
<feBlend mode="normal" in2="effect1_dropShadow_33784_34388" result="effect2_dropShadow_33784_34388"/>
<feColorMatrix in="SourceAlpha" type="matrix" values="0 0 0 0 0 0 0 0 0 0 0 0 0 0 0 0 0 0 127 0" result="hardAlpha"/>
<feMorphology radius="3" operator="erode" in="SourceAlpha" result="effect3_dropShadow_33784_34388"/>
<feOffset dy="10"/>
<feGaussianBlur stdDeviation="7.5"/>
<feColorMatrix type="matrix" values="0 0 0 0 0 0 0 0 0 0 0 0 0 0 0 0 0 0 0.1 0"/>
<feBlend mode="normal" in2="effect2_dropShadow_33784_34388" result="effect3_dropShadow_33784_34388"/>
<feBlend mode="normal" in="SourceGraphic" in2="effect3_dropShadow_33784_34388" result="shape"/>
</filter>
<clipPath id="clip0_33784_34388">
<rect x="12" y="2" width="147" height="96" rx="6" fill="white"/>
</clipPath>
</defs>
</svg>
