<svg width="152" height="152" viewBox="0 0 152 152" fill="none" xmlns="http://www.w3.org/2000/svg">
<g clip-path="url(#clip0_13564_113)">
<rect width="152" height="152" rx="20" fill="#020617"/>
<path d="M91.1008 48.7642H60.7844V103.237H91.1008V48.7642Z" fill="#FF5F00"/>
<path d="M62.7094 76.001C62.7094 65.4143 67.6178 55.3089 75.8946 48.7644C60.8808 36.9266 39.0338 39.5251 27.196 54.6352C15.4544 69.649 18.0529 91.3998 33.163 103.238C45.7708 113.151 63.3831 113.151 75.9909 103.238C67.6178 96.6931 62.7094 86.5877 62.7094 76.001Z" fill="#EB001B"/>
<path d="M132.004 76.001C132.004 95.1533 116.509 110.648 97.3566 110.648C89.5609 110.648 82.054 108.05 75.9907 103.238C91.0046 91.3998 93.6031 69.649 81.7653 54.5389C80.0329 52.4216 78.1081 50.4005 75.9907 48.7644C91.0046 36.9266 112.852 39.5251 124.593 54.6352C129.405 60.6985 132.004 68.2054 132.004 76.001Z" fill="#F79E1B"/>
</g>
<defs>
<clipPath id="clip0_13564_113">
<rect width="152" height="152" rx="20" fill="white"/>
</clipPath>
</defs>
</svg>
