<svg width="332" height="192" viewBox="0 0 332 192" fill="none" xmlns="http://www.w3.org/2000/svg">
<path d="M165.688 47.1745L38.2503 81.9006L38.2503 110.068C38.2503 114.983 41.632 119.697 47.6517 123.172L142.991 178.216C155.526 185.453 175.85 185.453 188.385 178.216L283.725 123.172C289.744 119.696 293.126 114.983 293.126 110.068L293.126 81.9006L165.688 47.1745Z" fill="url(#paint0_linear_33677_39559)"/>
<g filter="url(#filter0_i_33677_39559)">
<rect width="162.492" height="162.492" rx="26.2083" transform="matrix(0.866025 0.5 -0.866025 0.5 165.688 0)" fill="white"/>
</g>
<circle cx="2.03199" cy="2.03199" r="2.03199" transform="matrix(0.866025 0.5 -0.866025 0.5 101.343 106.491)" fill="#1DBDB6"/>
<circle cx="2.03199" cy="2.03199" r="2.03199" transform="matrix(0.866025 0.5 -0.866025 0.5 107.061 109.794)" fill="#1DBDB6"/>
<circle cx="2.03199" cy="2.03199" r="2.03199" transform="matrix(0.866025 0.5 -0.866025 0.5 112.78 113.096)" fill="#1DBDB6"/>
<circle cx="2.03199" cy="2.03199" r="2.03199" transform="matrix(0.866025 0.5 -0.866025 0.5 118.499 116.396)" fill="#DCDFF0"/>
<g filter="url(#filter1_i_33677_39559)">
<rect width="100.899" height="100.899" rx="15.2221" transform="matrix(0.866025 0.5 -0.866025 0.5 165.688 30.7969)" fill="url(#paint1_linear_33677_39559)"/>
</g>
<g clip-path="url(#clip0_33677_39559)">
<path d="M146.07 85.6524C141.062 82.2072 138.251 78.234 138.251 74.594C138.247 72.5186 139.105 70.7636 140.912 69.1535C141.733 68.4199 143.464 67.4201 144.75 66.9418C148.63 65.494 153.484 65.072 158.866 65.7169C171.134 67.1907 182.465 73.7587 184.917 80.8222C185.243 81.7593 185.355 82.4215 185.37 83.4343C185.385 84.7111 185.074 85.7953 184.295 87.1976C184.265 87.2495 184.343 87.3815 184.467 87.4876C184.879 87.8511 185.168 88.4852 185.205 89.1085C185.235 89.5932 185.127 90.0412 184.703 91.2423C184.276 92.4541 182.222 98.0028 182.068 98.3556C182.008 98.4941 181.596 98.5287 181.397 98.414C181.255 98.3318 181.251 98.2214 181.371 97.9098C181.457 97.6912 181.989 96.2716 182.555 94.7546C184.553 89.3898 184.621 89.1258 184.115 88.245L183.849 87.7841L182.282 86.8795C180.715 85.9749 180.715 85.9749 180.513 86.0485C179.403 86.451 179.141 86.5549 179.144 86.6046C179.148 86.6371 179.531 87.4421 179.995 88.3943L180.842 90.1256L180.471 90.2013C180.265 90.2424 180.078 90.2641 180.052 90.2489C180.025 90.2338 179.302 88.7817 178.447 87.0201C177.589 85.2607 176.806 83.7351 176.704 83.6334C176.303 83.2243 174.834 83.0858 174.279 83.4061C173.717 83.7307 173.721 83.919 174.343 87.5244C174.729 89.7728 174.901 91.0886 174.841 91.3396C174.729 91.7984 174.407 92.3827 173.901 93.0384C173.012 94.1962 173.113 95.1852 174.227 96.2608L174.594 96.6157L174.287 96.7455C174.118 96.8169 173.953 96.8775 173.916 96.8775C173.781 96.8818 173.11 96.1309 172.814 95.644C172.349 94.8822 172.345 94.1746 172.806 93.2116C172.81 93.2051 172.338 93.0709 171.764 92.9173C170.741 92.6424 170.681 92.6338 169.279 92.6251C163.3 92.584 157.075 91.1665 151.197 88.5134C150.219 88.087 146.894 86.2238 146.07 85.6524ZM152.19 88.139C154.912 89.3422 157.254 90.1451 160.002 90.8094C162.888 91.5063 166.025 91.9283 168.657 91.9672L169.695 91.9824L168.994 90.8376C168.248 89.6149 168.218 89.4677 168.646 89.0089C168.915 88.7189 169.459 88.5566 170.22 88.5415L170.816 88.5263L170.666 87.8944C170.55 87.3945 170.557 87.2127 170.707 87.0136C170.954 86.6934 171.445 86.4748 172.041 86.4164L172.495 86.3709L170.876 85.0378C169.987 84.3042 169.17 83.6117 169.065 83.4992C168.855 83.2784 168.897 82.9127 169.144 82.679C169.279 82.5535 174.943 80.3959 175.827 80.1319C176.225 80.015 176.997 80.041 177.364 80.1881C177.75 80.3418 182.522 84.2696 182.642 84.5336C182.833 84.9513 182.548 85.2802 181.746 85.5789L181.412 85.7022L181.731 85.8862C181.907 85.9879 182.346 86.2151 182.705 86.3926L183.361 86.715L183.62 86.2194C184.4 84.7262 184.456 82.7937 183.777 80.8439C183.459 79.9328 182.435 78.1907 181.652 77.2363C180.539 75.8795 178.908 74.4014 177.105 73.1181C176.116 72.4126 173.222 70.7463 172.034 70.1944C169.189 68.8722 166.277 67.8615 163.368 67.1864C156.632 65.6217 150.121 65.7148 145.507 67.4396C144.3 67.8897 142.546 68.8852 141.838 69.5192C140.271 70.9216 139.48 72.4602 139.398 74.2694C139.233 77.957 141.969 81.8653 147.213 85.4166C147.917 85.8927 151.313 87.7494 152.19 88.139ZM154.728 85.475C154.522 85.2564 154.571 84.882 154.841 84.6526C155.017 84.5033 155.215 84.4449 156.13 84.2761C159.826 83.5966 162.615 82.6184 165.332 81.0494C167.96 79.5324 169.523 78.0717 170.771 75.9617C171.037 75.5094 171.318 75.1047 171.389 75.0636C171.652 74.9121 172.248 74.8191 172.63 74.871C173.155 74.9402 173.661 75.2757 173.679 75.5678C173.687 75.6804 173.518 76.0764 173.308 76.4486C172.48 77.9223 171.213 79.3333 169.575 80.6166C168.559 81.4108 166.333 82.7396 165.092 83.2871C162.809 84.2977 160.474 85.0313 157.858 85.5551C156.276 85.871 155.515 85.9381 155.245 85.7823C155.193 85.752 155.088 85.7087 155.02 85.6871C154.953 85.6654 154.818 85.5702 154.728 85.475ZM153.056 82.3933C152.738 82.0579 152.966 81.5493 153.51 81.387C153.641 81.3459 154.316 81.2031 155.009 81.0668C157.94 80.4868 160.448 79.5021 162.322 78.195C163.863 77.1195 164.631 76.3253 165.429 74.977C165.969 74.0725 166.104 73.9642 166.831 73.8907C167.521 73.8214 168.297 74.1958 168.327 74.607C168.349 74.8926 167.472 76.3296 166.831 77.0589C164.71 79.4697 161.168 81.3329 156.76 82.3587C154.496 82.8824 153.529 82.8911 153.056 82.3933ZM151.302 79.2338C151.148 79.0022 151.205 78.6928 151.433 78.4828C151.572 78.3552 151.846 78.2794 152.843 78.0847C156.516 77.3662 158.892 76.0071 160.111 73.9361C160.643 73.0272 160.842 72.8995 161.696 72.9125C162.12 72.919 162.247 72.9536 162.551 73.1289C163.064 73.4254 163.072 73.7284 162.588 74.5356C161.846 75.7777 160.879 76.6693 159.267 77.5956C157.611 78.5478 156.205 79.0477 153.93 79.4956C152.625 79.751 152.179 79.7618 151.692 79.5454C151.55 79.4762 151.37 79.3377 151.302 79.2338ZM149.66 76.2863C149.529 76.1067 149.578 75.7886 149.765 75.5938C149.975 75.3774 150.275 75.2822 151.148 75.1588C152.277 75.0008 152.749 74.8407 153.664 74.3127C154.578 73.7846 154.859 73.5098 155.129 72.8606C155.219 72.6398 155.362 72.3931 155.44 72.3087C155.763 71.9625 156.715 71.8586 157.329 72.101C157.85 72.3066 157.955 72.5922 157.73 73.1895C157.075 74.9143 154.646 76.3166 151.673 76.6867C150.627 76.8143 149.945 76.6802 149.66 76.2863ZM171.959 92.4238C172.488 92.5688 172.956 92.6879 173.001 92.6879C173.046 92.6879 173.218 92.5017 173.387 92.2702C173.736 91.8006 173.758 91.8309 172.769 91.4413C171.7 91.0237 171.333 90.6341 171.074 89.6495C171.007 89.3811 170.891 89.1279 170.823 89.089C170.752 89.0479 170.501 89.0197 170.254 89.0241C169.733 89.0349 169.275 89.2556 169.226 89.5175C169.189 89.7469 170.478 91.846 170.763 92.0192C170.891 92.0971 171.427 92.2767 171.959 92.4238ZM173.455 91.1102C173.893 91.2769 173.957 91.2877 174.013 91.1817C174.073 91.0648 173.492 87.4659 173.372 87.1933C173.271 86.9704 173.039 86.8751 172.619 86.8838C171.393 86.9076 171.329 87.0266 171.689 88.5891C172.12 90.4783 172.236 90.6406 173.455 91.1102ZM173.166 85.9965C173.185 85.9857 173.132 85.5702 173.046 85.0746C172.84 83.8476 172.949 83.4949 173.661 83.0837C174.253 82.7418 175.224 82.64 176.191 82.8175C176.671 82.9041 177.285 83.2027 177.499 83.4472C177.649 83.6204 178.117 84.5271 178.717 85.8083L178.841 86.0788L180.246 85.5486C181.686 85.0075 182.004 84.8279 181.843 84.6526C181.795 84.5985 180.681 83.6701 179.373 82.5903C177.045 80.6707 176.764 80.4738 176.419 80.5214C176.236 80.5452 170.175 82.8023 169.965 82.9235C169.86 82.9841 169.781 83.0902 169.792 83.1616C169.8 83.2308 170.52 83.8757 171.389 84.5942C173.061 85.9835 173.113 86.0268 173.166 85.9965Z" fill="#CFD2E5"/>
</g>
<defs>
<filter id="filter0_i_33677_39559" x="38.2624" y="7.67578" width="254.852" height="147.832" filterUnits="userSpaceOnUse" color-interpolation-filters="sRGB">
<feFlood flood-opacity="0" result="BackgroundImageFix"/>
<feBlend mode="normal" in="SourceGraphic" in2="BackgroundImageFix" result="shape"/>
<feColorMatrix in="SourceAlpha" type="matrix" values="0 0 0 0 0 0 0 0 0 0 0 0 0 0 0 0 0 0 127 0" result="hardAlpha"/>
<feOffset dy="0.691914"/>
<feGaussianBlur stdDeviation="1.76438"/>
<feComposite in2="hardAlpha" operator="arithmetic" k2="-1" k3="1"/>
<feColorMatrix type="matrix" values="0 0 0 0 0.854564 0 0 0 0 0.862508 0 0 0 0 0.915467 0 0 0 0.34 0"/>
<feBlend mode="normal" in2="shape" result="effect1_innerShadow_33677_39559"/>
</filter>
<filter id="filter1_i_33677_39559" x="86.03" y="35.2549" width="159.316" height="91.9824" filterUnits="userSpaceOnUse" color-interpolation-filters="sRGB">
<feFlood flood-opacity="0" result="BackgroundImageFix"/>
<feBlend mode="normal" in="SourceGraphic" in2="BackgroundImageFix" result="shape"/>
<feColorMatrix in="SourceAlpha" type="matrix" values="0 0 0 0 0 0 0 0 0 0 0 0 0 0 0 0 0 0 127 0" result="hardAlpha"/>
<feOffset/>
<feGaussianBlur stdDeviation="0.691914"/>
<feComposite in2="hardAlpha" operator="arithmetic" k2="-1" k3="1"/>
<feColorMatrix type="matrix" values="0 0 0 0 0.101335 0 0 0 0 0.170772 0 0 0 0 0.587397 0 0 0 0.19 0"/>
<feBlend mode="normal" in2="shape" result="effect1_innerShadow_33677_39559"/>
</filter>
<linearGradient id="paint0_linear_33677_39559" x1="297.152" y1="93.93" x2="38.722" y2="93.93" gradientUnits="userSpaceOnUse">
<stop stop-color="#DDDEE9"/>
<stop offset="0.272719" stop-color="#EAEBF3"/>
<stop offset="0.847985" stop-color="#F9FAFD"/>
<stop offset="1" stop-color="#EAEBF3"/>
</linearGradient>
<linearGradient id="paint1_linear_33677_39559" x1="-17.7894" y1="32.6602" x2="50.4495" y2="100.899" gradientUnits="userSpaceOnUse">
<stop stop-color="#F9FAFD"/>
<stop offset="1" stop-color="white"/>
</linearGradient>
<clipPath id="clip0_33677_39559">
<rect width="53.1844" height="31.5609" fill="white" transform="matrix(0.866025 0.5 -0.866025 0.5 156.325 60.0596)"/>
</clipPath>
</defs>
</svg>
