<svg width="30" height="30" viewBox="0 0 30 30" fill="none" xmlns="http://www.w3.org/2000/svg">
<path d="M0 15C0 8.42504 0 5.13755 1.81592 2.92485C2.14835 2.51978 2.51978 2.14835 2.92485 1.81592C5.13755 0 8.42504 0 15 0V0C21.575 0 24.8624 0 27.0751 1.81592C27.4802 2.14835 27.8516 2.51978 28.1841 2.92485C30 5.13755 30 8.42504 30 15V15C30 21.575 30 24.8624 28.1841 27.0751C27.8516 27.4802 27.4802 27.8516 27.0751 28.1841C24.8624 30 21.575 30 15 30V30C8.42504 30 5.13755 30 2.92485 28.1841C2.51978 27.8516 2.14835 27.4802 1.81592 27.0751C0 24.8624 0 21.575 0 15V15Z" fill="#020617"/>
<path d="M10.212 15L7.78532 8.54247C7.53961 7.88862 8.02291 7.1907 8.7214 7.1907H20.1232C21.1636 7.1907 22.0953 7.83509 22.4624 8.80861L25.2123 16.1011H22.5083L20.1024 9.7207L10.9335 9.7207L12.9157 15H10.212Z" fill="url(#paint0_linear_3180_183041)"/>
<path d="M19.788 15L22.2147 21.4575C22.4604 22.1114 21.9771 22.8093 21.2786 22.8093L9.8768 22.8093C8.83636 22.8093 7.90469 22.1649 7.53758 21.1914L4.78765 13.8989L7.49173 13.8989L9.89758 20.2793L19.0665 20.2793L17.0843 15L19.788 15Z" fill="url(#paint1_linear_3180_183041)"/>
<defs>
<linearGradient id="paint0_linear_3180_183041" x1="25.2123" y1="11.5992" x2="7.27734" y2="11.5992" gradientUnits="userSpaceOnUse">
<stop stop-color="#406AFF"/>
<stop offset="1" stop-color="#D6CCFF"/>
</linearGradient>
<linearGradient id="paint1_linear_3180_183041" x1="4.8811" y1="18.4008" x2="22.6292" y2="18.4008" gradientUnits="userSpaceOnUse">
<stop stop-color="#406AFF"/>
<stop offset="1" stop-color="#D6CCFF"/>
</linearGradient>
</defs>
</svg>
