<svg width="189" height="40" viewBox="0 0 189 40" fill="none" xmlns="http://www.w3.org/2000/svg">
<path d="M11.2946 20L6.46696 7.15304C6.22125 6.49918 6.70455 5.80127 7.40304 5.80127H30.7298C31.7703 5.80127 32.7019 6.44566 33.069 7.41918L38.5681 22.0021H33.6516L29.2773 10.4013L12.6066 10.4013L16.2106 20H11.2946Z" fill="url(#paint0_linear_1_52391)"/>
<path d="M28.7054 20L33.533 32.847C33.7788 33.5008 33.2955 34.1987 32.597 34.1987L9.27017 34.1987C8.22974 34.1987 7.29807 33.5543 6.93096 32.5808L1.43192 17.9979L6.34843 17.9979L10.7227 29.5987L27.3934 29.5987L23.7894 20L28.7054 20Z" fill="url(#paint1_linear_1_52391)"/>
<path d="M57.5668 30.0519C56.1521 30.0519 54.8677 29.7633 53.7136 29.1863C52.5595 28.5906 51.6474 27.7902 50.9773 26.785C50.3258 25.7612 50 24.6537 50 23.4623C50 23.2762 50.0931 23.1831 50.2792 23.1831H53.211C53.3041 23.1831 53.3692 23.211 53.4064 23.2669C53.4437 23.3041 53.4716 23.3693 53.4902 23.4623C53.5833 24.5606 54.0021 25.3982 54.7467 25.9753C55.5099 26.5337 56.5058 26.8129 57.7343 26.8129C58.907 26.8129 59.8377 26.5803 60.5265 26.1149C61.2338 25.6309 61.5875 24.998 61.5875 24.2162C61.5875 23.5461 61.2059 22.9784 60.4427 22.513C59.6795 22.029 58.5813 21.6102 57.1479 21.2565C54.8956 20.6795 53.2203 19.9628 52.122 19.1066C51.0238 18.2317 50.4747 17.031 50.4747 15.5047C50.4747 14.3506 50.7911 13.3547 51.424 12.517C52.0569 11.6794 52.8945 11.0465 53.937 10.6184C54.9794 10.1716 56.1055 9.94824 57.3155 9.94824C58.7116 9.94824 59.9494 10.2182 61.0291 10.758C62.1087 11.2978 62.9464 12.0144 63.542 12.9079C64.1563 13.8014 64.482 14.7601 64.5193 15.7839C64.5193 15.97 64.4262 16.0631 64.2401 16.0631H61.2804C61.1873 16.0631 61.1221 16.0445 61.0849 16.0072C61.0477 15.9514 61.0198 15.8769 61.0011 15.7839C60.8708 14.9462 60.4613 14.304 59.7726 13.8573C59.1025 13.4105 58.2648 13.1872 57.2596 13.1872C56.3103 13.1872 55.5285 13.3733 54.9142 13.7456C54.2999 14.1179 53.9928 14.6484 53.9928 15.3371C53.9928 16.0817 54.3837 16.6774 55.1655 17.1241C55.9659 17.5709 57.12 18.0083 58.6278 18.4364C60.6195 18.9949 62.1925 19.6836 63.3466 20.5026C64.5193 21.3217 65.1056 22.4385 65.1056 23.8532C65.1056 25.8078 64.4262 27.3341 63.0673 28.4324C61.7085 29.512 59.875 30.0519 57.5668 30.0519Z" fill="#151515"/>
<path d="M67.655 29.7726C67.4689 29.7726 67.3758 29.6796 67.3758 29.4934V10.5067C67.3758 10.3205 67.4689 10.2275 67.655 10.2275H71.0335C71.2569 10.2275 71.4058 10.3205 71.4803 10.5067L76.6179 22.2059L81.7555 10.5067C81.8299 10.3205 81.9788 10.2275 82.2022 10.2275H85.5807C85.7669 10.2275 85.8599 10.3205 85.8599 10.5067V29.4934C85.8599 29.6796 85.7669 29.7726 85.5807 29.7726H82.6769C82.4907 29.7726 82.3977 29.6796 82.3977 29.4934V16.4261L78.1536 26.1987C78.0605 26.4034 77.9302 26.5058 77.7627 26.5058H75.4731C75.3055 26.5058 75.1752 26.4034 75.0822 26.1987L70.8381 16.4261V29.4934C70.8381 29.6796 70.745 29.7726 70.5589 29.7726H67.655Z" fill="#151515"/>
<path d="M87.4142 29.7726C87.1163 29.7726 87.0233 29.6237 87.135 29.3259L94.0037 10.5067C94.0781 10.3205 94.2178 10.2275 94.4225 10.2275H97.4381C97.6428 10.2275 97.7824 10.3205 97.8569 10.5067L104.726 29.3259C104.763 29.4376 104.781 29.5027 104.781 29.5213C104.781 29.6889 104.67 29.7726 104.446 29.7726H101.403C101.291 29.7726 101.217 29.754 101.18 29.7168C101.142 29.6796 101.105 29.6051 101.068 29.4934L99.3926 24.6071H92.468L90.7927 29.4934C90.7555 29.6051 90.7182 29.6796 90.681 29.7168C90.6438 29.754 90.5693 29.7726 90.4576 29.7726H87.4142ZM98.2757 21.3682L95.9303 14.5553L93.5849 21.3682H98.2757Z" fill="#151515"/>
<path d="M106.281 29.7726C106.095 29.7726 106.002 29.6796 106.002 29.4934V10.5067C106.002 10.3205 106.095 10.2275 106.281 10.2275H113.903C115.709 10.2275 117.152 10.7021 118.231 11.6515C119.329 12.5822 119.879 13.8852 119.879 15.5605C119.879 16.7332 119.534 17.7756 118.845 18.6877C118.157 19.5812 117.3 20.242 116.277 20.6702L120.437 29.4934L120.465 29.6051C120.465 29.7168 120.381 29.7726 120.214 29.7726H117.003C116.91 29.7726 116.835 29.754 116.779 29.7168C116.723 29.6796 116.668 29.6051 116.612 29.4934L112.423 20.8935H109.52V29.4934C109.52 29.6796 109.427 29.7726 109.24 29.7726H106.281ZM114.043 17.6546C114.75 17.6546 115.309 17.4685 115.718 17.0962C116.146 16.7239 116.36 16.212 116.36 15.5605C116.36 14.909 116.146 14.3971 115.718 14.0248C115.309 13.6525 114.75 13.4664 114.043 13.4664H109.52V17.6546H114.043Z" fill="#151515"/>
<path d="M126.447 29.7726C126.261 29.7726 126.168 29.6796 126.168 29.4934V13.4664H120.695C120.509 13.4664 120.416 13.3733 120.416 13.1872V10.5067C120.416 10.3205 120.509 10.2275 120.695 10.2275H135.159C135.345 10.2275 135.438 10.3205 135.438 10.5067V13.1872C135.438 13.3733 135.345 13.4664 135.159 13.4664H129.686V29.4934C129.686 29.6796 129.593 29.7726 129.407 29.7726H126.447Z" fill="#151515"/>
<path d="M142.405 29.7726C142.219 29.7726 142.126 29.6796 142.126 29.4934V10.5067C142.126 10.3205 142.219 10.2275 142.405 10.2275H145.365C145.551 10.2275 145.644 10.3205 145.644 10.5067V17.9618H153.742V10.5067C153.742 10.3205 153.835 10.2275 154.021 10.2275H156.981C157.167 10.2275 157.26 10.3205 157.26 10.5067V29.4934C157.26 29.6796 157.167 29.7726 156.981 29.7726H154.021C153.835 29.7726 153.742 29.6796 153.742 29.4934V21.2007H145.644V29.4934C145.644 29.6796 145.551 29.7726 145.365 29.7726H142.405Z" fill="#151515"/>
<path d="M165.009 30.0519C163.483 30.0519 162.282 29.633 161.407 28.7954C160.551 27.9391 160.123 26.785 160.123 25.3331V16.0352C160.123 15.849 160.216 15.756 160.402 15.756H163.194C163.381 15.756 163.474 15.849 163.474 16.0352V24.1325C163.474 25.1562 163.669 25.9008 164.06 26.3662C164.47 26.8129 165.075 27.0363 165.875 27.0363C166.843 27.0363 167.643 26.6547 168.276 25.8915C168.909 25.1097 169.226 23.937 169.226 22.3734V16.0352C169.226 15.849 169.319 15.756 169.505 15.756H172.297C172.483 15.756 172.576 15.849 172.576 16.0352V29.4934C172.576 29.6796 172.483 29.7726 172.297 29.7726H169.505C169.319 29.7726 169.226 29.6796 169.226 29.4934V28.4882C168.611 28.9908 167.969 29.3817 167.299 29.6609C166.629 29.9216 165.866 30.0519 165.009 30.0519Z" fill="#151515"/>
<path d="M182.526 30.0519C181.019 30.0519 179.678 29.5772 178.506 28.6278V29.4934C178.506 29.6796 178.413 29.7726 178.226 29.7726H175.434C175.248 29.7726 175.155 29.6796 175.155 29.4934V10.5067C175.155 10.3205 175.248 10.2275 175.434 10.2275H178.226C178.413 10.2275 178.506 10.3205 178.506 10.5067V16.8728C179.678 15.9421 181.019 15.4767 182.526 15.4767C183.773 15.4767 184.881 15.7746 185.849 16.3702C186.817 16.9659 187.562 17.8128 188.083 18.9111C188.623 20.0094 188.892 21.2938 188.892 22.7643C188.892 24.2348 188.623 25.5192 188.083 26.6175C187.562 27.7157 186.817 28.5627 185.849 29.1584C184.881 29.754 183.773 30.0519 182.526 30.0519ZM181.856 27.0363C182.936 27.0363 183.792 26.6361 184.425 25.8357C185.058 25.0166 185.374 23.9928 185.374 22.7643C185.374 21.5357 185.058 20.5213 184.425 19.7208C183.792 18.9018 182.936 18.4923 181.856 18.4923C180.777 18.4923 179.92 18.9018 179.287 19.7208C178.655 20.5213 178.338 21.5357 178.338 22.7643C178.338 23.9928 178.655 25.0166 179.287 25.8357C179.92 26.6361 180.777 27.0363 181.856 27.0363Z" fill="#151515"/>
<defs>
<linearGradient id="paint0_linear_1_52391" x1="38.5681" y1="13.8167" x2="5.95898" y2="13.8167" gradientUnits="userSpaceOnUse">
<stop stop-color="#406AFF"/>
<stop offset="1" stop-color="#D6CCFF"/>
</linearGradient>
<linearGradient id="paint1_linear_1_52391" x1="1.60182" y1="26.1833" x2="33.8711" y2="26.1833" gradientUnits="userSpaceOnUse">
<stop stop-color="#406AFF"/>
<stop offset="1" stop-color="#D6CCFF"/>
</linearGradient>
</defs>
</svg>
