<svg width="30" height="30" viewBox="0 0 30 30" fill="none" xmlns="http://www.w3.org/2000/svg">
<path d="M8.47098 15L4.97721 5.70272C4.7315 5.04886 5.2148 4.35095 5.9133 4.35095H22.6151C23.6555 4.35095 24.5872 4.99534 24.9543 5.96886L28.9261 16.5015H25.2387L21.958 7.80095L9.45496 7.80095L12.158 15H8.47098Z" fill="url(#paint0_linear_3180_183058)"/>
<path d="M21.529 15L25.0228 24.2973C25.2685 24.9511 24.7852 25.649 24.0867 25.649L7.38491 25.649C6.34447 25.649 5.4128 25.0047 5.0457 24.0311L1.07394 13.4985L4.76132 13.4985L8.04203 22.199L20.545 22.199L17.842 15L21.529 15Z" fill="url(#paint1_linear_3180_183058)"/>
<defs>
<linearGradient id="paint0_linear_3180_183058" x1="28.9261" y1="10.3625" x2="4.46924" y2="10.3625" gradientUnits="userSpaceOnUse">
<stop stop-color="#406AFF"/>
<stop offset="1" stop-color="#D6CCFF"/>
</linearGradient>
<linearGradient id="paint1_linear_3180_183058" x1="1.20136" y1="19.6375" x2="25.4033" y2="19.6375" gradientUnits="userSpaceOnUse">
<stop stop-color="#406AFF"/>
<stop offset="1" stop-color="#D6CCFF"/>
</linearGradient>
</defs>
</svg>
