<svg width="136" height="32" viewBox="0 0 136 32" fill="none" xmlns="http://www.w3.org/2000/svg">
<path d="M0 8.34783C0 3.73745 3.73745 0 8.34783 0H23.6522C28.2626 0 32 3.73745 32 8.34783V23.6522C32 28.2626 28.2626 32 23.6522 32H8.34783C3.73745 32 0 28.2626 0 23.6522V8.34783Z" fill="url(#paint0_linear_32558_31777)"/>
<path d="M10.4488 15.7226C10.4488 16.5796 9.92116 17.3481 9.12144 17.656L6.42188 18.6955V12.6628C6.42188 10.9874 7.31438 9.43882 8.76408 8.59897L13.2884 5.97786C14.4964 5.27805 16.0317 5.99794 16.2663 7.37413L10.4488 11.8879V15.7226Z" fill="url(#paint1_linear_32558_31777)"/>
<path d="M10.4219 8.10068C10.4215 9.23059 10.448 12.3168 10.448 12.3168L16.5999 8.59407V7.56606C16.5999 5.94179 14.8158 4.94923 13.4357 5.80566L11.1159 7.24519C10.6252 7.51636 10.422 7.67048 10.4219 8.10068Z" fill="url(#paint2_linear_32558_31777)"/>
<path d="M19.324 21.2248C20.0734 20.8091 21.0014 20.8978 21.6586 21.4477L23.877 23.3043L17.8125 26.668C16.8357 27.2098 15.6442 27.1902 14.6856 26.6166L9.42494 23.4682C8.22704 22.7513 8.11186 21.0595 9.20155 20.1868L15.9706 23.0848L19.324 21.2248Z" fill="url(#paint3_linear_32558_31777)"/>
<path d="M12.6715 24.9438C13.6598 24.3961 16.3458 22.876 16.3458 22.876L9.77266 18.9988C7.93273 20.0193 7.91718 22.6596 9.74497 23.7018L11.5868 24.7519C12.0619 25.0495 12.2952 25.1524 12.6715 24.9438Z" fill="url(#paint4_linear_32558_31777)"/>
<path d="M18.9551 10.482C18.207 10.064 17.7934 9.22862 17.9146 8.38027L18.3237 5.51657L24.3779 8.89882C25.3531 9.44362 25.9642 10.4667 25.9817 11.5836L26.0774 17.7137C26.0992 19.1096 24.7219 20.0988 23.4061 19.6324L22.3029 12.3522L18.9551 10.482Z" fill="url(#paint5_linear_32558_31777)"/>
<path d="M25.6242 14.1776C24.6379 13.6262 21.9307 12.1441 21.9307 12.1441L22.0985 19.7737C23.9353 20.7998 26.1876 19.4219 26.1104 17.3194L26.0325 15.2007C26.0351 14.64 25.9997 14.3875 25.6242 14.1776Z" fill="url(#paint6_linear_32558_31777)"/>
<path d="M16.2361 19.8274L16.2259 15.9318L19.6141 13.9764L19.6255 17.8698L16.2361 19.8274Z" fill="#7D95DD"/>
<path d="M16.2368 19.8263L12.8703 17.8689L12.8569 13.9743L16.2265 15.9308L16.2368 19.8263Z" fill="#E7EAFF"/>
<path d="M16.2229 15.9312L12.8533 13.9746L16.2448 12.0183L19.6112 13.9757L16.2229 15.9312Z" fill="#B7D6FF"/>
<path d="M129.12 15.1958H129.237C129.339 15.0388 129.481 14.8385 129.661 14.5952C129.846 14.348 130.109 14.1283 130.45 13.936C130.795 13.7399 131.262 13.6421 131.851 13.6421C132.612 13.6421 133.283 13.832 133.863 14.2124C134.444 14.593 134.898 15.1331 135.224 15.8315C135.549 16.5299 135.712 17.3538 135.712 18.3032C135.712 19.2606 135.549 20.0911 135.224 20.7934C134.898 21.4918 134.446 22.0329 133.869 22.4174C133.292 22.7979 132.627 22.9887 131.874 22.9887C131.293 22.9887 130.829 22.8919 130.479 22.6997C130.13 22.5035 129.861 22.2818 129.673 22.0346C129.485 21.7838 129.339 21.5763 129.237 21.4116H129.072V22.8003H127.73V10.7465H129.12V15.1958ZM46.3809 10.5815C47.2755 10.5815 48.0566 10.7344 48.7236 11.0405C49.3945 11.3465 49.9163 11.7725 50.2891 12.3178C50.6617 12.8631 50.8544 13.4946 50.8662 14.2124H48.4229C48.3757 13.7379 48.1743 13.3687 47.8174 13.1059C47.4603 12.843 46.9753 12.7124 46.3633 12.7124C45.9474 12.7124 45.596 12.7705 45.3096 12.8881C45.0231 13.0019 44.8034 13.1616 44.6504 13.3657C44.5014 13.5697 44.4268 13.8012 44.4268 14.06C44.419 14.2757 44.4645 14.4637 44.5625 14.6245C44.6645 14.7854 44.8039 14.9247 44.9805 15.0424C45.157 15.1562 45.3605 15.257 45.5918 15.3432C45.8233 15.4256 46.0711 15.4963 46.334 15.5551L47.417 15.8139C47.9426 15.9316 48.4249 16.0885 48.8643 16.2846C49.3037 16.4808 49.6851 16.7218 50.0068 17.0083C50.3286 17.2947 50.5773 17.6325 50.7539 18.021C50.9344 18.4094 51.0263 18.8547 51.0303 19.3569C51.0264 20.0946 50.8386 20.7344 50.4658 21.2758C50.097 21.8134 49.5627 22.2315 48.8643 22.5298C48.1699 22.8239 47.3323 22.9711 46.3516 22.9712C45.3785 22.9712 44.5306 22.8221 43.8086 22.5239C43.0906 22.2257 42.5292 21.7843 42.125 21.1997C41.7248 20.6112 41.5158 19.883 41.4961 19.0161H43.9619C43.9894 19.4199 44.1048 19.7572 44.3086 20.0278C44.5165 20.2946 44.7935 20.4969 45.1387 20.6342C45.4879 20.7677 45.8828 20.8344 46.3223 20.8344C46.7538 20.8344 47.1285 20.7715 47.4463 20.646C47.7678 20.5205 48.0168 20.346 48.1934 20.1225C48.3699 19.8989 48.458 19.6414 48.458 19.351C48.458 19.0803 48.3777 18.8528 48.2168 18.6684C48.0598 18.4841 47.8284 18.3272 47.5225 18.1977C47.2203 18.0682 46.8496 17.9501 46.4102 17.8442L45.0977 17.5151C44.0814 17.2679 43.279 16.8807 42.6904 16.3549C42.102 15.8293 41.8097 15.1214 41.8135 14.2309C41.8096 13.5011 42.0041 12.8633 42.3965 12.3178C42.7928 11.7725 43.3358 11.3465 44.0264 11.0405C44.717 10.7344 45.5019 10.5815 46.3809 10.5815ZM119.301 19.4096C119.301 20.0688 119.486 20.5954 119.854 20.9878C120.227 21.3798 120.702 21.5756 121.278 21.5756C121.624 21.5756 121.975 21.4876 122.332 21.311C122.693 21.1344 122.995 20.8634 123.238 20.4985C123.485 20.1336 123.609 19.6689 123.609 19.104V13.7592H124.998V22.8003H123.609V21.27H123.515C123.303 21.7289 122.973 22.1192 122.526 22.4409C122.079 22.7587 121.514 22.9174 120.831 22.9174C120.266 22.9174 119.764 22.7945 119.324 22.5473C118.885 22.2962 118.539 21.9196 118.288 21.4174C118.037 20.9113 117.912 20.2733 117.912 19.5044V13.7592H119.301V19.4096ZM59.207 18.8452H59.3486L62.668 10.7465H65.8115V22.8003H63.3389V14.9546H63.2393L60.1201 22.7417H58.4365L55.3174 14.9253H55.2168V22.8003H52.7451V10.7465H55.8877L59.207 18.8452ZM78.8584 22.8003H76.1279L75.2354 20.0512H70.8828L69.9883 22.8003H67.2578L71.4189 10.7465H74.7031L78.8584 22.8003ZM85.0654 10.7465C85.9755 10.7466 86.7521 10.9093 87.3955 11.2348C88.0429 11.5566 88.5356 12.0135 88.873 12.6059C89.2144 13.1945 89.3857 13.8875 89.3857 14.684C89.3857 15.4843 89.2124 16.1728 88.8672 16.7495C88.5219 17.3224 88.0215 17.7618 87.3662 18.0678C87.3302 18.0848 87.2927 18.0987 87.2559 18.1147L89.8154 22.8003H87.002L84.7178 18.5268H82.8584V22.8003H80.3096V10.7465H85.0654ZM100.627 12.8471H96.9365V22.8003H94.418V12.8471H90.7275V10.7465H100.627V12.8471ZM107.291 16.1137H113.718V10.7465H115.178V22.8003H113.718V17.4087H107.291V22.8003H105.831V10.7465H107.291V16.1137ZM131.686 14.8901C131.121 14.8902 130.646 15.0334 130.262 15.3198C129.877 15.6023 129.587 15.9982 129.391 16.5083C129.194 17.0144 129.097 17.6049 129.097 18.2798C129.097 18.9624 129.196 19.5646 129.396 20.0864C129.597 20.6043 129.889 21.0109 130.273 21.3051C130.658 21.5954 131.129 21.7406 131.686 21.7407C132.266 21.7407 132.751 21.5877 133.14 21.2817C133.532 20.9717 133.826 20.5555 134.022 20.0337C134.223 19.5079 134.323 18.9232 134.323 18.2798C134.323 17.6441 134.224 17.0711 134.028 16.561C133.836 16.0471 133.544 15.6414 133.151 15.3432C132.763 15.0411 132.274 14.8901 131.686 14.8901ZM71.5293 18.062H74.5898L73.1084 13.5005H73.0137L71.5293 18.062ZM82.8584 16.479H84.5889C85.0752 16.4789 85.4791 16.4121 85.8008 16.2788C86.1225 16.1454 86.3616 15.945 86.5186 15.6782C86.6794 15.4115 86.7597 15.0802 86.7598 14.684C86.7598 14.2838 86.6794 13.946 86.5186 13.6714C86.3616 13.3967 86.1206 13.1886 85.7949 13.0473C85.4732 12.9022 85.0666 12.8296 84.5762 12.8296H82.8584V16.479Z" fill="#1F2937"/>
<defs>
<linearGradient id="paint0_linear_32558_31777" x1="32" y1="9.31104" x2="-1.61938" y2="13.6949" gradientUnits="userSpaceOnUse">
<stop stop-color="#22356C"/>
<stop offset="1" stop-color="#212641"/>
</linearGradient>
<linearGradient id="paint1_linear_32558_31777" x1="11.3441" y1="4.53321" x2="11.3441" y2="18.2726" gradientUnits="userSpaceOnUse">
<stop stop-color="#E9EAFF"/>
<stop offset="1" stop-color="#BADBFF"/>
</linearGradient>
<linearGradient id="paint2_linear_32558_31777" x1="14.5701" y1="2.8063" x2="12.2619" y2="11.8939" gradientUnits="userSpaceOnUse">
<stop stop-color="#E9EAFF"/>
<stop offset="1" stop-color="#8DA5E5"/>
</linearGradient>
<linearGradient id="paint3_linear_32558_31777" x1="9.1047" y1="25.8692" x2="21.1197" y2="19.205" gradientUnits="userSpaceOnUse">
<stop stop-color="#E9EAFF"/>
<stop offset="1" stop-color="#BADBFF"/>
</linearGradient>
<linearGradient id="paint4_linear_32558_31777" x1="6.02955" y1="23.8843" x2="15.0962" y2="21.4948" gradientUnits="userSpaceOnUse">
<stop stop-color="#E9EAFF"/>
<stop offset="1" stop-color="#8DA5E5"/>
</linearGradient>
<linearGradient id="paint5_linear_32558_31777" x1="28.2868" y1="16.7209" x2="16.2923" y2="10.0199" gradientUnits="userSpaceOnUse">
<stop stop-color="#E9EAFF"/>
<stop offset="1" stop-color="#BADBFF"/>
</linearGradient>
<linearGradient id="paint6_linear_32558_31777" x1="28.223" y1="20.3811" x2="21.4152" y2="13.9339" gradientUnits="userSpaceOnUse">
<stop stop-color="#E9EAFF"/>
<stop offset="1" stop-color="#8DA5E5"/>
</linearGradient>
</defs>
</svg>
