<svg width="152" height="20" viewBox="0 0 152 20" fill="none" xmlns="http://www.w3.org/2000/svg">
<path d="M6.35392 14.4862C6.68724 14.6821 7.10728 14.4418 7.10728 14.0551L7.10728 8.708C7.10728 8.44261 6.96704 8.19699 6.73848 8.06209L2.75414 5.71055C2.42083 5.51382 2 5.75411 2 6.14114V11.9272L6.35392 14.4862Z" fill="#FFCD49"/>
<path opacity="0.8" d="M2 11.9347V6.11856C2 5.85207 2.14142 5.60558 2.37147 5.47109L8.83958 1.68971C9.17293 1.49484 9.59197 1.73525 9.59197 2.12136V6.65225C9.59197 7.1862 9.30811 7.6799 8.84664 7.94855L2 11.9347Z" fill="url(#paint0_linear_31822_55188)"/>
<path d="M11.2767 5.12C10.9435 4.92408 10.5234 5.16442 10.5234 5.55105V10.8982C10.5234 11.1636 10.6637 11.4092 10.8922 11.5441L14.8766 13.8957C15.2098 14.0924 15.6307 13.8521 15.6307 13.4651V7.67906L11.2767 5.12Z" fill="#FFCD49"/>
<path opacity="0.8" d="M15.631 7.67139V13.4875C15.631 13.754 15.4896 14.0005 15.2595 14.135L8.79142 17.9163C8.45808 18.1113 8.03906 17.8708 8.03906 17.4847V12.9538C8.03906 12.4199 8.3229 11.9262 8.78435 11.6576L15.631 7.67139Z" fill="url(#paint1_linear_31822_55188)"/>
<path d="M28.9839 7.61719C28.9375 7.183 28.742 6.84493 28.3973 6.60298C28.0559 6.36103 27.6118 6.24006 27.0649 6.24006C26.6804 6.24006 26.3506 6.29806 26.0756 6.41406C25.8005 6.53007 25.59 6.6875 25.4442 6.88636C25.2983 7.08523 25.2238 7.31226 25.2204 7.56747C25.2204 7.77959 25.2685 7.96354 25.3646 8.11932C25.464 8.27509 25.5983 8.40767 25.7673 8.51705C25.9363 8.62311 26.1236 8.71259 26.3291 8.78551C26.5346 8.85843 26.7417 8.91974 26.9506 8.96946L27.9051 9.2081C28.2896 9.29758 28.6591 9.41856 29.0138 9.57102C29.3717 9.72348 29.6916 9.91572 29.9733 10.1477C30.2583 10.3797 30.4837 10.6598 30.6494 10.9879C30.8151 11.3161 30.898 11.7005 30.898 12.1413C30.898 12.7379 30.7455 13.2633 30.4406 13.7173C30.1357 14.1681 29.6949 14.5211 29.1182 14.7763C28.5448 15.0282 27.8504 15.1541 27.0351 15.1541C26.2429 15.1541 25.5552 15.0315 24.9719 14.7862C24.3918 14.541 23.9378 14.183 23.6096 13.7124C23.2848 13.2417 23.1092 12.6683 23.0827 11.9922H24.8973C24.9238 12.3468 25.0332 12.6418 25.2254 12.8771C25.4176 13.1125 25.6679 13.2881 25.9761 13.4041C26.2877 13.5201 26.6357 13.5781 27.0202 13.5781C27.4212 13.5781 27.7725 13.5185 28.0741 13.3991C28.3791 13.2765 28.6177 13.1075 28.79 12.892C28.9624 12.6733 29.0502 12.4181 29.0535 12.1264C29.0502 11.8613 28.9723 11.6425 28.8199 11.4702C28.6674 11.2945 28.4536 11.1487 28.1785 11.0327C27.9068 10.9134 27.5886 10.8073 27.224 10.7145L26.0656 10.4162C25.2271 10.2008 24.5642 9.87429 24.077 9.43679C23.5931 8.99598 23.3511 8.41098 23.3511 7.68182C23.3511 7.08191 23.5135 6.55658 23.8383 6.10582C24.1665 5.65507 24.6122 5.3054 25.1757 5.05682C25.7391 4.80492 26.3772 4.67898 27.0898 4.67898C27.8123 4.67898 28.4453 4.80492 28.9889 5.05682C29.5358 5.3054 29.965 5.65175 30.2765 6.09588C30.5881 6.53669 30.7488 7.0438 30.7588 7.61719H28.9839ZM32.5423 4.81818H34.7994L37.8222 12.196H37.9415L40.9642 4.81818H43.2213V15H41.4514V8.00497H41.357L38.5431 14.9702H37.2206L34.4067 7.99006H34.3122V15H32.5423V4.81818ZM46.5374 15H44.5686L48.1531 4.81818H50.4301L54.0196 15H52.0509L49.3314 6.90625H49.2519L46.5374 15ZM46.602 11.0078H51.9713V12.4893H46.602V11.0078ZM55.3607 15V4.81818H59.1789C59.9611 4.81818 60.6173 4.95407 61.1476 5.22585C61.6813 5.49763 62.084 5.87879 62.3557 6.36932C62.6308 6.85653 62.7684 7.42495 62.7684 8.07457C62.7684 8.72751 62.6292 9.29427 62.3508 9.77486C62.0757 10.2521 61.6697 10.6217 61.1327 10.8835C60.5958 11.142 59.9362 11.2713 59.154 11.2713H56.4346V9.74006H58.9055C59.3628 9.74006 59.7374 9.67708 60.029 9.55114C60.3207 9.42187 60.5361 9.23461 60.6753 8.98935C60.8179 8.74077 60.8891 8.43584 60.8891 8.07457C60.8891 7.7133 60.8179 7.40507 60.6753 7.14986C60.5328 6.89134 60.3157 6.69579 60.0241 6.56321C59.7324 6.42732 59.3562 6.35938 58.8955 6.35938H57.2052V15H55.3607ZM60.6206 10.3864L63.1412 15H61.083L58.6072 10.3864H60.6206ZM64.0187 6.36435V4.81818H72.1423V6.36435H68.9953V15H67.1657V6.36435H64.0187ZM77.181 15V4.81818H83.8032V6.36435H79.0255V9.12855H83.4601V10.6747H79.0255V13.4538H83.843V15H77.181ZM87.077 7.36364L88.6182 10.1825L90.1842 7.36364H92.0883L89.7865 11.1818L92.1281 15H90.2339L88.6182 12.2507L87.0173 15H85.1082L87.4349 11.1818L85.1679 7.36364H87.077ZM96.5242 15.1491C95.7619 15.1491 95.1073 14.9818 94.5605 14.647C94.0169 14.3123 93.5976 13.8499 93.3026 13.2599C93.011 12.6667 92.8651 11.9839 92.8651 11.2116C92.8651 10.4361 93.0143 9.75166 93.3126 9.15838C93.6109 8.56179 94.0318 8.09777 94.5754 7.76633C95.1222 7.43158 95.7686 7.2642 96.5143 7.2642C97.1341 7.2642 97.6826 7.37855 98.1599 7.60724C98.6405 7.83262 99.0233 8.15246 99.3083 8.56676C99.5934 8.97775 99.7558 9.45833 99.7955 10.0085H98.0754C98.0058 9.64062 97.8401 9.33404 97.5782 9.08878C97.3197 8.8402 96.9733 8.71591 96.5392 8.71591C96.1713 8.71591 95.8481 8.81534 95.5697 9.0142C95.2913 9.20975 95.0742 9.49148 94.9184 9.85938C94.766 10.2273 94.6897 10.6681 94.6897 11.1818C94.6897 11.7022 94.766 12.1496 94.9184 12.5241C95.0709 12.8954 95.2847 13.1821 95.5597 13.3842C95.8382 13.5831 96.1646 13.6825 96.5392 13.6825C96.8043 13.6825 97.0413 13.6328 97.2501 13.5334C97.4622 13.4306 97.6395 13.2831 97.782 13.0909C97.9246 12.8987 98.0223 12.665 98.0754 12.3899H99.7955C99.7525 12.9302 99.5934 13.4091 99.3183 13.8267C99.0432 14.241 98.6686 14.5658 98.1947 14.8011C97.7207 15.0331 97.1639 15.1491 96.5242 15.1491ZM103.073 10.5256V15H101.273V4.81818H103.033V8.66122H103.123C103.302 8.23035 103.579 7.89062 103.953 7.64205C104.331 7.39015 104.811 7.2642 105.395 7.2642C105.925 7.2642 106.387 7.37524 106.782 7.5973C107.176 7.81937 107.481 8.14418 107.697 8.57173C107.915 8.99929 108.025 9.52131 108.025 10.1378V15H106.225V10.4162C106.225 9.90246 106.092 9.50308 105.827 9.21804C105.565 8.92969 105.198 8.78551 104.724 8.78551C104.405 8.78551 104.12 8.85511 103.869 8.99432C103.62 9.13021 103.424 9.32741 103.282 9.58594C103.143 9.84446 103.073 10.1577 103.073 10.5256ZM112.057 15.1541C111.573 15.1541 111.137 15.0679 110.749 14.8956C110.365 14.7199 110.06 14.4614 109.834 14.12C109.612 13.7786 109.501 13.3577 109.501 12.8572C109.501 12.4264 109.581 12.0701 109.74 11.7884C109.899 11.5066 110.116 11.2812 110.391 11.1122C110.666 10.9432 110.976 10.8156 111.321 10.7294C111.669 10.6399 112.029 10.5753 112.4 10.5355C112.847 10.4891 113.21 10.4477 113.489 10.4112C113.767 10.3714 113.969 10.3118 114.095 10.2322C114.224 10.1494 114.289 10.0218 114.289 9.84943V9.8196C114.289 9.44508 114.178 9.15507 113.956 8.94957C113.734 8.74408 113.414 8.64134 112.996 8.64134C112.556 8.64134 112.206 8.73745 111.947 8.92969C111.692 9.12192 111.52 9.34896 111.43 9.6108L109.75 9.37216C109.882 8.90814 110.101 8.52036 110.406 8.20881C110.711 7.89394 111.084 7.65862 111.525 7.50284C111.966 7.34375 112.453 7.2642 112.986 7.2642C113.354 7.2642 113.721 7.30729 114.085 7.39347C114.45 7.47964 114.783 7.62216 115.084 7.82102C115.386 8.01657 115.628 8.28338 115.81 8.62145C115.996 8.95952 116.089 9.3821 116.089 9.8892V15H114.359V13.951H114.299C114.19 14.1631 114.035 14.362 113.837 14.5476C113.641 14.7299 113.394 14.8774 113.096 14.9901C112.801 15.0994 112.454 15.1541 112.057 15.1541ZM112.524 13.8317C112.885 13.8317 113.199 13.7604 113.464 13.6179C113.729 13.4721 113.933 13.2798 114.075 13.0412C114.221 12.8026 114.294 12.5424 114.294 12.2607V11.3608C114.238 11.4072 114.141 11.4503 114.006 11.4901C113.873 11.5298 113.724 11.5646 113.558 11.5945C113.392 11.6243 113.228 11.6508 113.066 11.674C112.904 11.6972 112.763 11.7171 112.643 11.7337C112.375 11.7701 112.135 11.8298 111.922 11.9126C111.71 11.9955 111.543 12.1115 111.42 12.2607C111.298 12.4065 111.236 12.5954 111.236 12.8274C111.236 13.1589 111.357 13.4091 111.599 13.5781C111.841 13.7472 112.15 13.8317 112.524 13.8317ZM119.698 10.5256V15H117.898V7.36364H119.619V8.66122H119.708C119.884 8.23366 120.164 7.89394 120.548 7.64205C120.936 7.39015 121.415 7.2642 121.985 7.2642C122.512 7.2642 122.971 7.37689 123.362 7.60227C123.757 7.82765 124.061 8.15412 124.277 8.58168C124.496 9.00923 124.603 9.52794 124.6 10.1378V15H122.8V10.4162C122.8 9.90578 122.668 9.50639 122.403 9.21804C122.141 8.92969 121.778 8.78551 121.314 8.78551C120.999 8.78551 120.719 8.85511 120.474 8.99432C120.232 9.13021 120.041 9.32741 119.902 9.58594C119.766 9.84446 119.698 10.1577 119.698 10.5256ZM129.751 18.0227C129.104 18.0227 128.549 17.9349 128.085 17.7592C127.621 17.5869 127.248 17.3549 126.967 17.0632C126.685 16.7715 126.489 16.4484 126.38 16.0938L128.001 15.701C128.074 15.8501 128.18 15.9976 128.319 16.1435C128.458 16.2926 128.645 16.4152 128.881 16.5114C129.119 16.6108 129.419 16.6605 129.78 16.6605C130.291 16.6605 130.713 16.5362 131.048 16.2876C131.383 16.0424 131.55 15.638 131.55 15.0746V13.6278H131.461C131.368 13.8134 131.232 14.004 131.053 14.1996C130.878 14.3951 130.644 14.5592 130.352 14.6918C130.064 14.8243 129.701 14.8906 129.263 14.8906C128.677 14.8906 128.145 14.7531 127.668 14.478C127.194 14.1996 126.816 13.7853 126.534 13.2351C126.256 12.6816 126.116 11.9889 126.116 11.157C126.116 10.3184 126.256 9.6108 126.534 9.03409C126.816 8.45407 127.195 8.01491 127.672 7.71662C128.15 7.41501 128.682 7.2642 129.268 7.2642C129.716 7.2642 130.084 7.34044 130.372 7.4929C130.664 7.64205 130.896 7.82268 131.068 8.0348C131.24 8.24361 131.371 8.44081 131.461 8.62642H131.56V7.36364H133.335V15.1243C133.335 15.7772 133.179 16.3175 132.868 16.745C132.556 17.1726 132.13 17.4924 131.59 17.7045C131.05 17.9167 130.437 18.0227 129.751 18.0227ZM129.766 13.4787C130.147 13.4787 130.472 13.3859 130.74 13.2003C131.008 13.0147 131.212 12.7479 131.351 12.3999C131.491 12.0518 131.56 11.6342 131.56 11.147C131.56 10.6664 131.491 10.2455 131.351 9.88423C131.216 9.52296 131.013 9.2429 130.745 9.04403C130.48 8.84186 130.153 8.74077 129.766 8.74077C129.364 8.74077 129.03 8.84517 128.761 9.05398C128.493 9.26278 128.291 9.54948 128.155 9.91406C128.019 10.2753 127.951 10.6863 127.951 11.147C127.951 11.6143 128.019 12.0237 128.155 12.375C128.294 12.723 128.498 12.9948 128.766 13.1903C129.038 13.3826 129.371 13.4787 129.766 13.4787ZM138.56 15.1491C137.795 15.1491 137.133 14.9901 136.577 14.6719C136.023 14.3504 135.597 13.8963 135.299 13.3097C135.001 12.7197 134.851 12.0253 134.851 11.2266C134.851 10.4411 135.001 9.75166 135.299 9.15838C135.601 8.56179 136.021 8.09777 136.562 7.76633C137.102 7.43158 137.737 7.2642 138.466 7.2642C138.936 7.2642 139.381 7.34044 139.798 7.4929C140.219 7.64205 140.59 7.87405 140.912 8.18892C141.237 8.50379 141.492 8.90483 141.677 9.39205C141.863 9.87595 141.956 10.4527 141.956 11.1222V11.674H135.697V10.4609H140.231C140.227 10.1162 140.153 9.80966 140.007 9.54119C139.861 9.26941 139.657 9.05563 139.396 8.89986C139.137 8.74408 138.835 8.66619 138.491 8.66619C138.123 8.66619 137.8 8.75568 137.521 8.93466C137.243 9.11032 137.026 9.34233 136.87 9.63068C136.717 9.91572 136.64 10.2289 136.636 10.5703V11.6293C136.636 12.0734 136.717 12.4545 136.88 12.7727C137.042 13.0876 137.269 13.3295 137.561 13.4986C137.853 13.6643 138.194 13.7472 138.585 13.7472C138.847 13.7472 139.084 13.7107 139.296 13.6378C139.508 13.5616 139.692 13.4505 139.848 13.3047C140.004 13.1589 140.121 12.9782 140.201 12.7628L141.881 12.9517C141.775 13.3958 141.573 13.7836 141.275 14.1151C140.98 14.4432 140.602 14.6984 140.141 14.8807C139.681 15.0597 139.154 15.1491 138.56 15.1491Z" fill="#1F2937"/>
<defs>
<linearGradient id="paint0_linear_31822_55188" x1="2" y1="12.3666" x2="9.59197" y2="2.08555" gradientUnits="userSpaceOnUse">
<stop stop-color="#FB9131"/>
<stop offset="1" stop-color="#FBC734"/>
</linearGradient>
<linearGradient id="paint1_linear_31822_55188" x1="15.631" y1="7.23944" x2="8.03906" y2="17.5205" gradientUnits="userSpaceOnUse">
<stop stop-color="#FB9131"/>
<stop offset="1" stop-color="#FBC734"/>
</linearGradient>
</defs>
</svg>
