<svg width="24" height="24" viewBox="0 0 24 24" fill="none" xmlns="http://www.w3.org/2000/svg">
<path d="M1.75 20H5.875H6.90625M2.5 2H17.5M3.25 2V20M16.75 2V6.5V8.75M7 5.75H8.5M7 8.75H8.5M7 11.75H8.5M11.5 5.75H13M11.5 8.75H13M19.1554 21.6096C18.3185 20.5051 16.9926 19.7917 15.5 19.7917C14.0074 19.7917 12.6815 20.5051 11.8446 21.6096M19.1554 21.6096C20.2871 20.6022 21 19.1344 21 17.5C21 14.4624 18.5376 12 15.5 12C12.4624 12 10 14.4624 10 17.5C10 19.1344 10.7129 20.6022 11.8446 21.6096M19.1554 21.6096C18.1837 22.4745 16.9032 23 15.5 23C14.0968 23 12.8163 22.4745 11.8446 21.6096M17.3333 16.125C17.3333 17.1375 16.5125 17.9583 15.5 17.9583C14.4875 17.9583 13.6667 17.1375 13.6667 16.125C13.6667 15.1125 14.4875 14.2917 15.5 14.2917C16.5125 14.2917 17.3333 15.1125 17.3333 16.125Z" stroke="#6B7280" stroke-width="1.5" stroke-linecap="round" stroke-linejoin="round"/>
</svg>
