<svg width="24" height="24" viewBox="0 0 24 24" fill="none" xmlns="http://www.w3.org/2000/svg">
<path d="M2.25 8.25H21.75M2.25 9H21.75M5.25 14.25H11.25M5.25 16.5H8.25M21.75 11V6.75C21.75 5.50736 20.7426 4.5 19.5 4.5H4.5C3.25736 4.5 2.25 5.50736 2.25 6.75V17.25C2.25 18.4926 3.25736 19.5 4.5 19.5H14M19.5 19.75L19.8942 18.5673C20.1182 17.8954 20.6454 17.3682 21.3173 17.1442L22.5 16.75L21.3173 16.3558C20.6454 16.1318 20.1182 15.6046 19.8942 14.9327L19.5 13.75L19.1058 14.9327C18.8818 15.6046 18.3546 16.1318 17.6827 16.3558L16.5 16.75L17.6827 17.1442C18.3546 17.3682 18.8818 17.8954 19.1058 18.5673L19.5 19.75Z" stroke="#6B7280" stroke-width="1.5" stroke-linecap="round" stroke-linejoin="round"/>
</svg>
